<?xml version="1.0" encoding="utf-8"?>
<!-- Generator: Adobe Illustrator 23.0.3, SVG Export Plug-In . SVG Version: 6.00 Build 0)  -->
<svg version="1.1" id="图层_1" xmlns="http://www.w3.org/2000/svg" xmlns:xlink="http://www.w3.org/1999/xlink" x="0px" y="0px"
	 viewBox="0 0 400 400" enable-background="new 0 0 400 400" xml:space="preserve">
<g>
	<path fill-rule="evenodd" clip-rule="evenodd" fill="#FF8670" d="M90.9,211.4L232.8,196l74.2,41.6c0,0,10,18-5.2,25.9l-135.4,22.4
		l-74.4-50L90.9,211.4L90.9,211.4z"/>
	<g>
		<defs>
			<path id="SVGID_1_" d="M90.9,211.4L232.8,196l74.2,41.6c0,0,10,18-5.2,25.9l-135.4,22.4l-74.4-50L90.9,211.4L90.9,211.4z"/>
		</defs>
		<clipPath id="SVGID_2_">
			<use xlink:href="#SVGID_1_"  overflow="visible"/>
		</clipPath>
		<path clip-path="url(#SVGID_2_)" fill-rule="evenodd" clip-rule="evenodd" fill="#FB6D50" d="M88,209.9c0,0,64.9,42.4,75.8,46.3
			c0,0,138.4-22.3,142.7-22.1c0,0,18.4,17.1-2.3,32.6l-144.3,25.1l-84.3-33.4l-1.8-29.2L88,209.9L88,209.9z"/>
		<path clip-path="url(#SVGID_2_)" fill-rule="evenodd" clip-rule="evenodd" fill="#FFF0F7" d="M89.6,215.3l73.6,45.6l132.9-20.2
			c0,0,11.3,3.5,4.4,15.9l-132.9,21.3l-77.1-50.2L89.6,215.3L89.6,215.3z"/>
	</g>
	<path fill-rule="evenodd" clip-rule="evenodd" fill="#FFEC23" d="M310,171.1l-141.9-15.4l-74.2,41.6c0,0-10,18,5.2,25.9l135.4,22.4
		l74.4-50L310,171.1L310,171.1z"/>
	<g>
		<defs>
			<path id="SVGID_3_" d="M310,171.1l-141.9-15.4l-74.2,41.6c0,0-10,18,5.2,25.9l135.4,22.4l74.4-50L310,171.1L310,171.1z"/>
		</defs>
		<clipPath id="SVGID_4_">
			<use xlink:href="#SVGID_3_"  overflow="visible"/>
		</clipPath>
		<path clip-path="url(#SVGID_4_)" fill-rule="evenodd" clip-rule="evenodd" fill="#FFDF37" d="M312.9,169.6
			c0,0-64.9,42.4-75.8,46.3c0,0-138.4-22.3-142.7-22.1c0,0-18.4,17.1,2.3,32.6L241,251.5l84.3-33.4l1.8-29.2L312.9,169.6
			L312.9,169.6z"/>
		<path clip-path="url(#SVGID_4_)" fill-rule="evenodd" clip-rule="evenodd" fill="#FFF0F7" d="M311.3,174.9l-73.6,45.6l-132.9-20.2
			c0,0-11.3,3.5-4.4,15.9l132.9,21.3l77.1-50.2L311.3,174.9L311.3,174.9z"/>
	</g>
	<path fill-rule="evenodd" clip-rule="evenodd" fill="#FAA5B4" d="M113,148.8l116.4-12.6l60.9,34.1c0,0,8.2,14.7-4.3,21.2
		l-111.1,18.4l-61.1-41L113,148.8L113,148.8z"/>
	<g>
		<defs>
			<path id="SVGID_5_" d="M113,148.8l116.4-12.6l60.9,34.1c0,0,8.2,14.7-4.3,21.2l-111.1,18.4l-61.1-41L113,148.8L113,148.8z"/>
		</defs>
		<clipPath id="SVGID_6_">
			<use xlink:href="#SVGID_5_"  overflow="visible"/>
		</clipPath>
		<path clip-path="url(#SVGID_6_)" fill-rule="evenodd" clip-rule="evenodd" fill="#FF8EA2" d="M110.7,147.6c0,0,53.2,34.8,62.2,38
			c0,0,113.6-18.3,117.1-18.1c0,0,15.1,14.1-1.9,26.7l-118.4,20.6l-69.2-27.4l-1.5-24L110.7,147.6L110.7,147.6z"/>
		<path clip-path="url(#SVGID_6_)" fill-rule="evenodd" clip-rule="evenodd" fill="#FFF0F7" d="M112,152l60.4,37.5l109.1-16.5
			c0,0,9.3,2.8,3.7,13l-109.1,17.5l-63.3-41.2L112,152L112,152z"/>
	</g>
</g>
<g display="none">
	<polygon display="inline" fill-rule="evenodd" clip-rule="evenodd" fill="#1F5EE3" points="157.8,158.8 130.6,158.8 130.6,208.9 
		157.8,208.9 157.8,158.8 	"/>
	<polygon display="inline" fill-rule="evenodd" clip-rule="evenodd" fill="#1FA6E3" points="185,158.9 157.8,158.9 157.8,209 
		185,209 185,158.9 	"/>
	<polygon display="inline" fill-rule="evenodd" clip-rule="evenodd" fill="#9DE31F" points="212,158.8 184.7,158.8 184.7,208.9 
		212,208.9 212,158.8 	"/>
	<polygon display="inline" fill-rule="evenodd" clip-rule="evenodd" fill="#E3C61F" points="238.2,158.9 282.8,165.6 282.5,198.2 
		238.9,201.9 238.2,158.9 	"/>
	<polygon display="inline" fill-rule="evenodd" clip-rule="evenodd" fill="#E3D81F" points="239,158.6 211.8,158.6 211.8,208.7 
		239,208.7 239,158.6 	"/>
	<path display="inline" fill-rule="evenodd" clip-rule="evenodd" fill="#EEEBD7" d="M151.3,173.1c0-4.4-3.5-7.9-7.9-7.9
		c-4.4,0-7.9,3.5-7.9,7.9l-0.2,42.5c0,4.4,3.5,7.9,7.9,7.9c4.4,0,7.9-3.5,7.9-7.9L151.3,173.1L151.3,173.1z"/>
	<path display="inline" fill-rule="evenodd" clip-rule="evenodd" fill="#EEEBD7" d="M178.8,173.2c0-4.4-3.5-7.9-7.9-7.9
		c-4.4,0-7.9,3.5-7.9,7.9l-0.2,42.5c0,4.4,3.5,7.9,7.9,7.9c4.4,0,7.9-3.5,7.9-7.9L178.8,173.2L178.8,173.2z"/>
	<path display="inline" fill-rule="evenodd" clip-rule="evenodd" fill="#EEEBD7" d="M206,173.3c0-4.4-3.5-7.9-7.9-7.9
		c-4.4,0-7.9,3.5-7.9,7.9l-0.2,42.5c0,4.4,3.5,7.9,7.9,7.9c4.4,0,7.9-3.5,7.9-7.9L206,173.3L206,173.3z"/>
	<path display="inline" fill-rule="evenodd" clip-rule="evenodd" fill="#EEEBD7" d="M232.7,173.4c0-4.4-3.5-7.9-7.9-7.9
		c-4.4,0-7.9,3.5-7.9,7.9l-0.2,42.5c0,4.4,3.5,7.9,7.9,7.9c4.4,0,7.9-3.5,7.9-7.9L232.7,173.4L232.7,173.4z"/>
	<polygon display="inline" fill-rule="evenodd" clip-rule="evenodd" fill="#F3BB3B" points="250.5,198.2 293.2,198.2 293.1,306.8 
		250.5,317.3 250.5,198.2 	"/>
	<polygon display="inline" fill-rule="evenodd" clip-rule="evenodd" fill="#FED64E" points="114,197.4 113.9,316.5 250.5,317.3 
		251.3,198.1 114,197.4 	"/>
	<path display="inline" fill-rule="evenodd" clip-rule="evenodd" fill="#F3BB3B" d="M212.6,212.7c0-1.4-1.2-2.6-2.6-2.6h-55.8
		c-1.4,0-2.6,1.2-2.6,2.6c0,1.4,1.2,2.6,2.6,2.6H210C211.5,215.3,212.6,214.2,212.6,212.7L212.6,212.7z"/>
</g>
<g display="none">
	<path display="inline" fill-rule="evenodd" clip-rule="evenodd" fill="#FF3F67" d="M251.5,151.6c0,0-11.4-6.2-6.5-16.5
		c0,0,6.9-17.9-11.2-13.8c0,0-6.5,2.9-12.4,16.6c0,0-2.4,6.9-16.1,4.4c0,0-10.1,0.9-8.5,17.3c0,0,5.2,9.5-8.3,7.5
		c0,0-15-0.7-9.7,19.6c0,0,7.9,17.7,22,23.7l27.3,0.5c0,0,14.6-2.4,20.1-10.7c0,0,3.2-8.8-3.8-14.4c0,0-9.2-9.2,1.5-15.5
		c0,0,11.3-0.5,7.7-15.3L251.5,151.6L251.5,151.6z"/>
	<g display="inline">
		<defs>
			<path id="SVGID_7_" d="M251.5,151.6c0,0-11.4-6.2-6.5-16.5c0,0,6.9-17.9-11.2-13.8c0,0-6.5,2.9-12.4,16.6c0,0-2.4,6.9-16.1,4.4
				c0,0-10.1,0.9-8.5,17.3c0,0,5.2,9.5-8.3,7.5c0,0-15-0.7-9.7,19.6c0,0,7.9,17.7,22,23.7l27.3,0.5c0,0,14.6-2.4,20.1-10.7
				c0,0,3.2-8.8-3.8-14.4c0,0-9.2-9.2,1.5-15.5c0,0,11.3-0.5,7.7-15.3L251.5,151.6L251.5,151.6z"/>
		</defs>
		<clipPath id="SVGID_8_">
			<use xlink:href="#SVGID_7_"  overflow="visible"/>
		</clipPath>
		<path clip-path="url(#SVGID_8_)" fill-rule="evenodd" clip-rule="evenodd" fill="#FFFFFF" d="M241,120.7c0,0-34.3,70.8-32.3,95.7
			C208.7,216.5,223.1,159.5,241,120.7L241,120.7z"/>
		<path clip-path="url(#SVGID_8_)" fill-rule="evenodd" clip-rule="evenodd" fill="#FFFFFF" d="M216,191.9c0,0,10.5,7.9,25-7.3
			C241,184.6,226,197.2,216,191.9L216,191.9z"/>
		<path clip-path="url(#SVGID_8_)" fill-rule="evenodd" clip-rule="evenodd" fill="#FFFFFF" d="M224.8,163.7c0,0,7.9,4.9,22.2-6.1
			C247,157.6,234,166.3,224.8,163.7L224.8,163.7z"/>
		<path clip-path="url(#SVGID_8_)" fill-rule="evenodd" clip-rule="evenodd" fill="#FFFFFF" d="M232.6,140.8c0,0,8.9-2.3,11.4-7.9
			C244,132.9,241.7,140.1,232.6,140.8L232.6,140.8z"/>
		<path clip-path="url(#SVGID_8_)" fill-rule="evenodd" clip-rule="evenodd" fill="#FFFFFF" d="M228.5,151.7c0,0-6.2-1.5-7.4-10.9
			C221.1,140.8,221.1,150.5,228.5,151.7L228.5,151.7z"/>
	</g>
	<path display="inline" fill-rule="evenodd" clip-rule="evenodd" fill="#FF8EA2" d="M148.3,139c0,0,14-6.9,8.7-19.5
		c0,0-7.4-21.9,14.2-16c0,0,7.6,3.8,14,20.6c0,0,2.6,8.4,19.1,6.2c0,0,12,1.7,9.4,21.2c0,0-6.7,11.1,9.6,9.4c0,0,18.1,0,10.6,24
		c0,0-10.4,20.9-27.6,27.4l-32.9-0.8c0,0-20-6-23.4-13.6c-0.7,0.1-4.8-10.9,5-17.4c0,0,11.6-10.5-1-18.8c-0.1-0.6-14.9-6.3-8.5-18.8
		C146.8,140.6,146.9,140.7,148.3,139L148.3,139z"/>
	<g display="inline">
		<defs>
			<path id="SVGID_9_" d="M148.3,139c0,0,14-6.9,8.7-19.5c0,0-7.4-21.9,14.2-16c0,0,7.6,3.8,14,20.6c0,0,2.6,8.4,19.1,6.2
				c0,0,12,1.7,9.4,21.2c0,0-6.7,11.1,9.6,9.4c0,0,18.1,0,10.6,24c0,0-10.4,20.9-27.6,27.4l-32.9-0.8c0,0-20-6-23.4-13.6
				c-0.7,0.1-4.8-10.9,5-17.4c0,0,11.6-10.5-1-18.8c-0.1-0.6-14.9-6.3-8.5-18.8C146.8,140.6,146.9,140.7,148.3,139L148.3,139z"/>
		</defs>
		<clipPath id="SVGID_10_">
			<use xlink:href="#SVGID_9_"  overflow="visible"/>
		</clipPath>
		<path clip-path="url(#SVGID_10_)" fill-rule="evenodd" clip-rule="evenodd" fill="#FFFFFF" d="M159.4,102.5
			c0,0,37.9,66.7,42.5,120.3C201.9,222.8,193.3,170.2,159.4,102.5L159.4,102.5z"/>
		<path clip-path="url(#SVGID_10_)" fill-rule="evenodd" clip-rule="evenodd" fill="#FFFFFF" d="M198.4,200.9c0,0,19.6-8,17.3-34.9
			C215.6,165.9,218,187.5,198.4,200.9L198.4,200.9z"/>
		<path clip-path="url(#SVGID_10_)" fill-rule="evenodd" clip-rule="evenodd" fill="#FFFFFF" d="M193,183.4c0,0-10.5,14.9-33.6-3.1
			C159.4,180.2,178.4,195.8,193,183.4L193,183.4z"/>
		<path clip-path="url(#SVGID_10_)" fill-rule="evenodd" clip-rule="evenodd" fill="#FFFFFF" d="M184,156.5c0,0-11.5,14.1-32.3-7.8
			C151.7,148.7,169.6,167.8,184,156.5L184,156.5z"/>
		<path clip-path="url(#SVGID_10_)" fill-rule="evenodd" clip-rule="evenodd" fill="#FFFFFF" d="M172.5,132c0,0-7.1,4.1-13.1-4.2
			C159.4,127.7,164.6,134,172.5,132L172.5,132z"/>
		<path clip-path="url(#SVGID_10_)" fill-rule="evenodd" clip-rule="evenodd" fill="#FFFFFF" d="M190.1,172.7
			c0,0,12.1-5.5,10.4-32.3C200.5,140.4,201.5,160.9,190.1,172.7L190.1,172.7z"/>
		<path clip-path="url(#SVGID_10_)" fill-rule="evenodd" clip-rule="evenodd" fill="#FFFFFF" d="M177.3,140.4c0,0,5.6-9.2,0-25.3
			C177.3,115.1,181.5,127.2,177.3,140.4L177.3,140.4z"/>
		<path clip-path="url(#SVGID_10_)" fill-rule="evenodd" clip-rule="evenodd" fill="#FF8096" d="M165.6,98.5c-1.8,1.8-6.4,5.1-7.3,8
			c-2.1,6.7,1,13.4,3,19c0.9,2.4-3,7.8-4,10c-2.8,6.1-10.3,7.7-9.1,15.5c0.2,1.5,1.8,2.8,2.7,3.9c1.2,1.5,2,3.5,3.5,4.6
			c3.2,2.3,6.4,3.1,7.2,7.4c1.8,9.6-9.6,16-8.3,25.4c2,14.4,29.8,15.7,21.5,32.3c-0.8,1.7-2,3.3-3.4,4.5c-12.9,11.6-32.8,5-45.9-2.1
			c-7.7-4.3-14-7.9-18.7-15.8c-7.1-12-6.1-29.3-4-42.5c4-25.4,15-51.7,37-66.8c5-3.4,10.1-5.2,16-6.4c1.8-0.4,4.6-1.5,6.4-0.8
			c1.7,0.6,3,4.8,3.3,6.4c0.2,0.9-0.8,3.4-0.1,2.8"/>
	</g>
	<path display="inline" fill-rule="evenodd" clip-rule="evenodd" fill="#018CDA" d="M235.7,210.6l-70.4-0.1l5.6,48.8
		c0,0,0.6,12,9,13l41.9,0.3c0,0,7.9,0.9,8.8-14.6L235.7,210.6L235.7,210.6z"/>
	<g display="inline">
		<defs>
			<path id="SVGID_11_" d="M235.7,210.6l-70.4-0.1l5.6,48.8c0,0,0.6,12,9,13l41.9,0.3c0,0,7.9,0.9,8.8-14.6L235.7,210.6L235.7,210.6
				z"/>
		</defs>
		<clipPath id="SVGID_12_">
			<use xlink:href="#SVGID_11_"  overflow="visible"/>
		</clipPath>
		<path clip-path="url(#SVGID_12_)" fill-rule="evenodd" clip-rule="evenodd" fill="#007AC5" d="M230,185.9c-2.3,26.8-2.7,52.8-9,79
			c-2.6,10.7-8.8,13.8-17.2,19.4c-0.7,0.5-2.5,1.6-1.8,2.8c2.6,4.3,23.4,1.8,27.2,1.8c34.6,0,47.8-15.8,45.4-54.3
			c-0.6-10.3-4.7-31.6-16.1-36.2c-0.4-0.2-0.8-0.2-1.2-0.4c-1.3-0.4-1.1-0.3-2.2-0.3c-9.8-0.5-19.1-4.7-28.8-5.2
			c-0.5,0-5.8,0-5.8-0.4"/>
	</g>
</g>
<g display="none">
	<polygon display="inline" fill-rule="evenodd" clip-rule="evenodd" fill="#F0F1F7" points="202.6,201.6 148.6,232.5 178.7,285.2 
		232.7,254.3 202.6,201.6 	"/>
	<polygon display="inline" fill-rule="evenodd" clip-rule="evenodd" fill="#C8C9D2" points="186.3,223.4 160.9,237.9 164.7,244.5 
		190.1,230 186.3,223.4 	"/>
	<polygon display="inline" fill-rule="evenodd" clip-rule="evenodd" fill="#C8C9D2" points="191.4,232.3 166,246.8 169.8,253.4 
		195.2,238.9 191.4,232.3 	"/>
	<polygon display="inline" fill-rule="evenodd" clip-rule="evenodd" fill="#C8C9D2" points="206,245.3 175.2,262.9 177.1,266.2 
		207.9,248.5 206,245.3 	"/>
	<polygon display="inline" fill-rule="evenodd" clip-rule="evenodd" fill="#C8C9D2" points="209.3,251 178.5,268.7 180.4,271.9 
		211.2,254.3 209.3,251 	"/>
	<polygon display="inline" fill-rule="evenodd" clip-rule="evenodd" fill="#F0F1F7" points="265.1,221.4 222.7,175.7 178.2,217 
		220.6,262.7 265.1,221.4 	"/>
	<polygon display="inline" fill-rule="evenodd" clip-rule="evenodd" fill="#C8C9D2" points="240.2,210.4 220.3,189 214.7,194.2 
		234.6,215.6 240.2,210.4 	"/>
	<polygon display="inline" fill-rule="evenodd" clip-rule="evenodd" fill="#C8C9D2" points="232.6,217.4 212.7,196 207.2,201.2 
		227,222.6 232.6,217.4 	"/>
	<polygon display="inline" fill-rule="evenodd" clip-rule="evenodd" fill="#C8C9D2" points="223.3,234.6 199.2,208.6 196.4,211.1 
		220.6,237.1 223.3,234.6 	"/>
	<polygon display="inline" fill-rule="evenodd" clip-rule="evenodd" fill="#C8C9D2" points="218.4,239.1 194.3,213.1 191.5,215.7 
		215.7,241.7 218.4,239.1 	"/>
	<polygon display="inline" fill-rule="evenodd" clip-rule="evenodd" fill="#F0F1F7" points="173.5,168.4 234.9,178.6 244.8,118.8 
		183.4,108.6 173.5,168.4 	"/>
	<polygon display="inline" fill-rule="evenodd" clip-rule="evenodd" fill="#C8C9D2" points="199.9,161.9 228.7,166.7 230,159.2 
		201.1,154.4 199.9,161.9 	"/>
	<polygon display="inline" fill-rule="evenodd" clip-rule="evenodd" fill="#C8C9D2" points="201.6,151.7 230.4,156.5 231.6,149 
		202.8,144.2 201.6,151.7 	"/>
	<polygon display="inline" fill-rule="evenodd" clip-rule="evenodd" fill="#C8C9D2" points="198.4,132.5 233.4,138.3 234,134.6 
		199,128.7 198.4,132.5 	"/>
	<polygon display="inline" fill-rule="evenodd" clip-rule="evenodd" fill="#C8C9D2" points="199.5,125.9 234.5,131.7 235.1,128 
		200.1,122.2 199.5,125.9 	"/>
	<polygon display="inline" fill-rule="evenodd" clip-rule="evenodd" fill="#F0F1F7" points="179.1,189.1 197,248.8 255.1,231.4 
		237.3,171.7 179.1,189.1 	"/>
	<polygon display="inline" fill-rule="evenodd" clip-rule="evenodd" fill="#C8C9D2" points="196.6,209.9 205,237.9 212.3,235.8 
		203.9,207.8 196.6,209.9 	"/>
	<polygon display="inline" fill-rule="evenodd" clip-rule="evenodd" fill="#C8C9D2" points="206.5,207 214.9,235 222.2,232.8 
		213.8,204.8 206.5,207 	"/>
	<polygon display="inline" fill-rule="evenodd" clip-rule="evenodd" fill="#C8C9D2" points="222.4,195.7 232.6,229.7 236.2,228.6 
		226,194.6 222.4,195.7 	"/>
	<polygon display="inline" fill-rule="evenodd" clip-rule="evenodd" fill="#C8C9D2" points="228.8,193.8 239,227.8 242.6,226.7 
		232.4,192.7 228.8,193.8 	"/>
	<polygon display="inline" fill-rule="evenodd" clip-rule="evenodd" fill="#F0F1F7" points="181.5,242.5 199.3,302.1 257.4,284.7 
		239.6,225.1 181.5,242.5 	"/>
	<polygon display="inline" fill-rule="evenodd" clip-rule="evenodd" fill="#C8C9D2" points="198.9,263.3 207.3,291.3 214.6,289.1 
		206.2,261.1 198.9,263.3 	"/>
	<polygon display="inline" fill-rule="evenodd" clip-rule="evenodd" fill="#C8C9D2" points="208.8,260.4 217.2,288.4 224.5,286.2 
		216.1,258.2 208.8,260.4 	"/>
	<polygon display="inline" fill-rule="evenodd" clip-rule="evenodd" fill="#C8C9D2" points="224.7,249.1 234.9,283.1 238.5,282 
		228.3,248 224.7,249.1 	"/>
	<polygon display="inline" fill-rule="evenodd" clip-rule="evenodd" fill="#C8C9D2" points="231.1,247.2 241.3,281.2 244.9,280.1 
		234.7,246.1 231.1,247.2 	"/>
	<polygon display="inline" fill-rule="evenodd" clip-rule="evenodd" fill="#F0F1F7" points="147,209.9 164.8,269.5 223,252.1 
		205.1,192.5 147,209.9 	"/>
	<polygon display="inline" fill-rule="evenodd" clip-rule="evenodd" fill="#C8C9D2" points="164.5,230.7 172.8,258.7 180.1,256.5 
		171.7,228.5 164.5,230.7 	"/>
	<polygon display="inline" fill-rule="evenodd" clip-rule="evenodd" fill="#C8C9D2" points="174.3,227.7 182.7,255.7 190,253.6 
		181.6,225.5 174.3,227.7 	"/>
	<polygon display="inline" fill-rule="evenodd" clip-rule="evenodd" fill="#C8C9D2" points="190.3,216.4 200.4,250.4 204,249.4 
		193.9,215.4 190.3,216.4 	"/>
	<polygon display="inline" fill-rule="evenodd" clip-rule="evenodd" fill="#C8C9D2" points="196.6,214.5 206.8,248.5 210.4,247.4 
		200.2,213.5 196.6,214.5 	"/>
	<polygon display="inline" fill-rule="evenodd" clip-rule="evenodd" fill="#F0F1F7" points="148.9,245.7 166.8,305.3 224.9,287.9 
		207,228.3 148.9,245.7 	"/>
	<polygon display="inline" fill-rule="evenodd" clip-rule="evenodd" fill="#C8C9D2" points="166.4,266.5 174.8,294.5 182.1,292.3 
		173.7,264.3 166.4,266.5 	"/>
	<polygon display="inline" fill-rule="evenodd" clip-rule="evenodd" fill="#C8C9D2" points="176.3,263.5 184.7,291.5 192,289.3 
		183.6,261.3 176.3,263.5 	"/>
	<polygon display="inline" fill-rule="evenodd" clip-rule="evenodd" fill="#C8C9D2" points="192.2,252.2 202.4,286.2 206,285.2 
		195.8,251.2 192.2,252.2 	"/>
	<polygon display="inline" fill-rule="evenodd" clip-rule="evenodd" fill="#C8C9D2" points="198.6,250.3 208.8,284.3 212.4,283.2 
		202.2,249.2 198.6,250.3 	"/>
	<polygon display="inline" fill-rule="evenodd" clip-rule="evenodd" fill="#F0F1F7" points="199.6,140.2 217.5,199.8 275.6,182.4 
		257.8,122.8 199.6,140.2 	"/>
	<polygon display="inline" fill-rule="evenodd" clip-rule="evenodd" fill="#C8C9D2" points="217.1,161 225.5,189 232.8,186.8 
		224.4,158.8 217.1,161 	"/>
	<polygon display="inline" fill-rule="evenodd" clip-rule="evenodd" fill="#C8C9D2" points="227,158 235.4,186 242.7,183.9 
		234.3,155.9 227,158 	"/>
	<polygon display="inline" fill-rule="evenodd" clip-rule="evenodd" fill="#C8C9D2" points="242.9,146.7 253.1,180.7 256.7,179.7 
		246.5,145.7 242.9,146.7 	"/>
	<polygon display="inline" fill-rule="evenodd" clip-rule="evenodd" fill="#C8C9D2" points="249.3,144.8 259.5,178.8 263.1,177.8 
		252.9,143.8 249.3,144.8 	"/>
	<polygon display="inline" fill-rule="evenodd" clip-rule="evenodd" fill="#F0F1F7" points="137.6,113.6 141.5,175.7 202.1,171.9 
		198.1,109.8 137.6,113.6 	"/>
	<polygon display="inline" fill-rule="evenodd" clip-rule="evenodd" fill="#C8C9D2" points="149.9,137.8 151.8,167 159.4,166.5 
		157.5,137.4 149.9,137.8 	"/>
	<polygon display="inline" fill-rule="evenodd" clip-rule="evenodd" fill="#C8C9D2" points="160.2,137.2 162.1,166.4 169.7,165.9 
		167.8,136.7 160.2,137.2 	"/>
	<polygon display="inline" fill-rule="evenodd" clip-rule="evenodd" fill="#C8C9D2" points="178.3,129.8 180.5,165.2 184.3,165 
		182,129.5 178.3,129.8 	"/>
	<polygon display="inline" fill-rule="evenodd" clip-rule="evenodd" fill="#C8C9D2" points="184.9,129.4 187.2,164.8 190.9,164.5 
		188.7,129.1 184.9,129.4 	"/>
	<polygon display="inline" fill-rule="evenodd" clip-rule="evenodd" fill="#F0F1F7" points="212.5,132.8 158.5,163.7 188.6,216.3 
		242.7,185.4 212.5,132.8 	"/>
	<polygon display="inline" fill-rule="evenodd" clip-rule="evenodd" fill="#C8C9D2" points="196.2,154.5 170.8,169 174.6,175.6 
		200,161.1 196.2,154.5 	"/>
	<polygon display="inline" fill-rule="evenodd" clip-rule="evenodd" fill="#C8C9D2" points="201.3,163.5 176,178 179.7,184.6 
		205.1,170.1 201.3,163.5 	"/>
	<polygon display="inline" fill-rule="evenodd" clip-rule="evenodd" fill="#C8C9D2" points="215.9,176.4 185.1,194 187,197.3 
		217.8,179.7 215.9,176.4 	"/>
	<polygon display="inline" fill-rule="evenodd" clip-rule="evenodd" fill="#C8C9D2" points="219.2,182.2 188.4,199.8 190.3,203.1 
		221.1,185.5 219.2,182.2 	"/>
	<polygon display="inline" fill-rule="evenodd" clip-rule="evenodd" fill="#F0F1F7" points="214.9,186.1 160.8,217.1 190.9,269.7 
		245,238.8 214.9,186.1 	"/>
	<polygon display="inline" fill-rule="evenodd" clip-rule="evenodd" fill="#C8C9D2" points="198.5,207.9 173.2,222.4 176.9,229 
		202.3,214.5 198.5,207.9 	"/>
	<polygon display="inline" fill-rule="evenodd" clip-rule="evenodd" fill="#C8C9D2" points="203.7,216.8 178.3,231.4 182.1,238 
		207.4,223.5 203.7,216.8 	"/>
	<polygon display="inline" fill-rule="evenodd" clip-rule="evenodd" fill="#C8C9D2" points="218.3,229.8 187.5,247.4 189.3,250.7 
		220.1,233.1 218.3,229.8 	"/>
	<polygon display="inline" fill-rule="evenodd" clip-rule="evenodd" fill="#C8C9D2" points="221.6,235.6 190.8,253.2 192.6,256.5 
		223.4,238.8 221.6,235.6 	"/>
	<polygon display="inline" fill-rule="evenodd" clip-rule="evenodd" fill="#F0F1F7" points="180.4,153.5 126.3,184.4 156.5,237.1 
		210.5,206.2 180.4,153.5 	"/>
	<polygon display="inline" fill-rule="evenodd" clip-rule="evenodd" fill="#C8C9D2" points="164.1,175.3 138.7,189.8 142.5,196.4 
		167.8,181.9 164.1,175.3 	"/>
	<polygon display="inline" fill-rule="evenodd" clip-rule="evenodd" fill="#C8C9D2" points="169.2,184.2 143.8,198.7 147.6,205.3 
		173,190.8 169.2,184.2 	"/>
	<polygon display="inline" fill-rule="evenodd" clip-rule="evenodd" fill="#C8C9D2" points="183.8,197.2 153,214.8 154.9,218 
		185.7,200.4 183.8,197.2 	"/>
	<polygon display="inline" fill-rule="evenodd" clip-rule="evenodd" fill="#C8C9D2" points="187.1,202.9 156.3,220.6 158.2,223.8 
		189,206.2 187.1,202.9 	"/>
	<polygon display="inline" fill-rule="evenodd" clip-rule="evenodd" fill="#F0F1F7" points="182.3,189.3 128.3,220.2 158.4,272.9 
		212.4,242 182.3,189.3 	"/>
	<polygon display="inline" fill-rule="evenodd" clip-rule="evenodd" fill="#C8C9D2" points="166,211.1 140.6,225.6 144.4,232.2 
		169.8,217.7 166,211.1 	"/>
	<polygon display="inline" fill-rule="evenodd" clip-rule="evenodd" fill="#C8C9D2" points="171.1,220 145.7,234.5 149.5,241.1 
		174.9,226.6 171.1,220 	"/>
	<polygon display="inline" fill-rule="evenodd" clip-rule="evenodd" fill="#C8C9D2" points="185.7,233 154.9,250.6 156.8,253.8 
		187.6,236.2 185.7,233 	"/>
	<polygon display="inline" fill-rule="evenodd" clip-rule="evenodd" fill="#C8C9D2" points="189,238.7 158.2,256.4 160.1,259.6 
		190.9,242 189,238.7 	"/>
	<polygon display="inline" fill-rule="evenodd" clip-rule="evenodd" fill="#F0F1F7" points="233.1,83.8 179,114.7 209.1,167.4 
		263.2,136.5 233.1,83.8 	"/>
	<polygon display="inline" fill-rule="evenodd" clip-rule="evenodd" fill="#C8C9D2" points="216.7,105.6 191.4,120.1 195.1,126.7 
		220.5,112.2 216.7,105.6 	"/>
	<polygon display="inline" fill-rule="evenodd" clip-rule="evenodd" fill="#C8C9D2" points="221.8,114.5 196.5,129 200.3,135.6 
		225.6,121.1 221.8,114.5 	"/>
	<polygon display="inline" fill-rule="evenodd" clip-rule="evenodd" fill="#C8C9D2" points="236.5,127.5 205.7,145.1 207.5,148.3 
		238.3,130.7 236.5,127.5 	"/>
	<polygon display="inline" fill-rule="evenodd" clip-rule="evenodd" fill="#C8C9D2" points="239.8,133.3 209,150.9 210.8,154.1 
		241.6,136.5 239.8,133.3 	"/>
	<polygon display="inline" fill-rule="evenodd" clip-rule="evenodd" fill="#018CDA" points="127.5,126.3 114.9,128 140.6,311.2 
		153.1,309.5 127.5,126.3 	"/>
	<polygon display="inline" fill-rule="evenodd" clip-rule="evenodd" fill="#018CDA" points="284.8,134.6 119.5,134.6 119.5,148.7 
		284.8,148.7 284.8,134.6 	"/>
	<polygon display="inline" fill-rule="evenodd" clip-rule="evenodd" fill="#018CDA" points="268.2,182 145.3,305.1 151.5,311.2 
		274.4,188.1 268.2,182 	"/>
	<polygon display="inline" fill-rule="evenodd" clip-rule="evenodd" fill="#018CDA" points="276.5,146 137.9,284.9 144.1,291 
		282.6,152.2 276.5,146 	"/>
	<polygon display="inline" fill-rule="evenodd" clip-rule="evenodd" fill="#018CDA" points="256.2,135.2 135.9,255.8 142,261.9 
		262.3,141.3 256.2,135.2 	"/>
	<polygon display="inline" fill-rule="evenodd" clip-rule="evenodd" fill="#018CDA" points="262.1,228.3 180.8,309.8 186.9,315.9 
		268.2,234.4 262.1,228.3 	"/>
	<polygon display="inline" fill-rule="evenodd" clip-rule="evenodd" fill="#018CDA" points="256.2,267.7 223.7,300.2 229.8,306.4 
		262.3,273.8 256.2,267.7 	"/>
	<polygon display="inline" fill-rule="evenodd" clip-rule="evenodd" fill="#018CDA" points="216.9,140.6 132.5,231.9 138.3,237.9 
		222.7,146.6 216.9,140.6 	"/>
	<polygon display="inline" fill-rule="evenodd" clip-rule="evenodd" fill="#018CDA" points="188.1,134.3 125.6,201.9 131.5,207.8 
		194,140.2 188.1,134.3 	"/>
	<polygon display="inline" fill-rule="evenodd" clip-rule="evenodd" fill="#018CDA" points="150.6,141.6 125.6,168.7 131.7,174.5 
		156.7,147.4 150.6,141.6 	"/>
	<polygon display="inline" fill-rule="evenodd" clip-rule="evenodd" fill="#018CDA" points="274.8,127.2 287.3,128.9 261.7,312.2 
		249.1,310.4 274.8,127.2 	"/>
	<polygon display="inline" fill-rule="evenodd" clip-rule="evenodd" fill="#007AC5" points="262,297.4 140.7,297.4 140.7,317.7 
		262,317.7 262,297.4 	"/>
	<polygon display="inline" fill-rule="evenodd" clip-rule="evenodd" fill="#007AC5" points="295.7,135 107.3,135 110.4,125.8 
		292.6,125.8 295.7,135 	"/>
</g>
<g display="none">
	<polygon display="inline" fill-rule="evenodd" clip-rule="evenodd" fill="#8682F8" points="221.3,300.1 172.2,300.1 172.2,319.8 
		221.3,319.8 221.3,300.1 	"/>
	<path display="inline" fill-rule="evenodd" clip-rule="evenodd" fill="#8682F8" d="M248.8,347.2c0-1.3-1.1-2.4-2.4-2.4h-99.4
		c-1.3,0-2.4,1.1-2.4,2.4c0,1.3,1.1,2.4,2.4,2.4h99.4C247.7,349.6,248.8,348.5,248.8,347.2L248.8,347.2z"/>
	<polygon display="inline" fill-rule="evenodd" clip-rule="evenodd" fill="#B1B2FF" points="248.5,345.8 145,345.8 171.6,319.3 
		221.9,319.3 248.5,345.8 	"/>
	<path display="inline" fill-rule="evenodd" clip-rule="evenodd" fill="#B1B2FF" d="M321.6,150.3c0-1.7-1.4-3.1-3.1-3.1H77.4
		c-1.7,0-3.1,1.4-3.1,3.1v147.2c0,1.7,1.4,3.1,3.1,3.1h241.2c1.7,0,3.1-1.4,3.1-3.1V150.3L321.6,150.3z"/>
	<g display="inline">
		<defs>
			<path id="SVGID_13_" d="M321.6,150.3c0-1.7-1.4-3.1-3.1-3.1H77.4c-1.7,0-3.1,1.4-3.1,3.1v147.2c0,1.7,1.4,3.1,3.1,3.1h241.2
				c1.7,0,3.1-1.4,3.1-3.1V150.3L321.6,150.3z"/>
		</defs>
		<clipPath id="SVGID_14_">
			<use xlink:href="#SVGID_13_"  overflow="visible"/>
		</clipPath>
		<polygon clip-path="url(#SVGID_14_)" fill-rule="evenodd" clip-rule="evenodd" fill="#8682F8" points="351.2,108.4 178.9,344 
			334.9,338.4 400.3,286.9 351.2,108.4 		"/>
	</g>
	<path display="inline" fill-rule="evenodd" clip-rule="evenodd" fill="#FFFFFF" d="M313.4,156.2c0-1.6-1.3-2.8-2.8-2.8H85.9
		c-1.6,0-2.8,1.3-2.8,2.8v135.4c0,1.6,1.3,2.8,2.8,2.8h224.7c1.6,0,2.8-1.3,2.8-2.8V156.2L313.4,156.2z"/>
	<path display="inline" fill-rule="evenodd" clip-rule="evenodd" fill="#B1B2FF" d="M117.2,183.3c0-1.1-0.9-2-2-2c-1.1,0-2,0.9-2,2
		v100c0,1.1,0.9,2,2,2c1.1,0,2-0.9,2-2V183.3L117.2,183.3z"/>
	<path display="inline" fill-rule="evenodd" clip-rule="evenodd" fill="#DDDEFD" d="M128.8,247.7c0-1.1-0.9-2-2-2c-1.1,0-2,0.9-2,2
		v35.7c0,1.1,0.9,2,2,2c1.1,0,2-0.9,2-2V247.7L128.8,247.7z"/>
	<path display="inline" fill-rule="evenodd" clip-rule="evenodd" fill="#B1B2FF" d="M139.9,236.3c0-1.1-0.9-2-2-2c-1.1,0-2,0.9-2,2
		v47c0,1.1,0.9,2,2,2c1.1,0,2-0.9,2-2V236.3L139.9,236.3z"/>
	<path display="inline" fill-rule="evenodd" clip-rule="evenodd" fill="#B1B2FF" d="M153,219.3c0-1.1-0.9-2-2-2s-2,0.9-2,2v64.1
		c0,1.1,0.9,2,2,2s2-0.9,2-2V219.3L153,219.3z"/>
	<path display="inline" fill-rule="evenodd" clip-rule="evenodd" fill="#DDDEFD" d="M164.5,225c0-1.1-0.9-2-2-2s-2,0.9-2,2v58.4
		c0,1.1,0.9,2,2,2s2-0.9,2-2V225L164.5,225z"/>
	<path display="inline" fill-rule="evenodd" clip-rule="evenodd" fill="#EAEBFB" d="M177,213.6c0-1.1-0.9-2-2-2c-1.1,0-2,0.9-2,2
		v69.7c0,1.1,0.9,2,2,2c1.1,0,2-0.9,2-2V213.6L177,213.6z"/>
	<path display="inline" fill-rule="evenodd" clip-rule="evenodd" fill="#B1B2FF" d="M187.8,264.7c0-1.1-0.9-2-2-2c-1.1,0-2,0.9-2,2
		v18.7c0,1.1,0.9,2,2,2c1.1,0,2-0.9,2-2V264.7L187.8,264.7z"/>
	<path display="inline" fill-rule="evenodd" clip-rule="evenodd" fill="#B1B2FF" d="M241.7,264.7c0-1.1-0.9-2-2-2c-1.1,0-2,0.9-2,2
		v18.7c0,1.1,0.9,2,2,2c1.1,0,2-0.9,2-2V264.7L241.7,264.7z"/>
	<path display="inline" fill-rule="evenodd" clip-rule="evenodd" fill="#EAEBFB" d="M199.7,253.3c0-1.1-0.9-2-2-2c-1.1,0-2,0.9-2,2
		v30c0,1.1,0.9,2,2,2c1.1,0,2-0.9,2-2V253.3L199.7,253.3z"/>
	<path display="inline" fill-rule="evenodd" clip-rule="evenodd" fill="#DDDEFD" d="M253.6,253.3c0-1.1-0.9-2-2-2c-1.1,0-2,0.9-2,2
		v30c0,1.1,0.9,2,2,2c1.1,0,2-0.9,2-2V253.3L253.6,253.3z"/>
	<path display="inline" fill-rule="evenodd" clip-rule="evenodd" fill="#B1B2FF" d="M209.1,247.7c0-1.1-0.9-2-2-2s-2,0.9-2,2v35.7
		c0,1.1,0.9,2,2,2s2-0.9,2-2V247.7L209.1,247.7z"/>
	<path display="inline" fill-rule="evenodd" clip-rule="evenodd" fill="#B1B2FF" d="M263,247.7c0-1.1-0.9-2-2-2c-1.1,0-2,0.9-2,2
		v35.7c0,1.1,0.9,2,2,2c1.1,0,2-0.9,2-2V247.7L263,247.7z"/>
	<path display="inline" fill-rule="evenodd" clip-rule="evenodd" fill="#EAEBFB" d="M220.8,276c0-1.1-0.9-2-2-2c-1.1,0-2,0.9-2,2
		v7.3c0,1.1,0.9,2,2,2c1.1,0,2-0.9,2-2V276L220.8,276z"/>
	<path display="inline" fill-rule="evenodd" clip-rule="evenodd" fill="#B1B2FF" d="M274.7,276c0-1.1-0.9-2-2-2c-1.1,0-2,0.9-2,2
		v7.3c0,1.1,0.9,2,2,2c1.1,0,2-0.9,2-2V276L274.7,276z"/>
	<path display="inline" fill-rule="evenodd" clip-rule="evenodd" fill="#DDDEFD" d="M230.6,213.6c0-1.1-0.9-2-2-2c-1.1,0-2,0.9-2,2
		v69.7c0,1.1,0.9,2,2,2c1.1,0,2-0.9,2-2V213.6L230.6,213.6z"/>
	<path display="inline" fill-rule="evenodd" clip-rule="evenodd" fill="#DDDEFD" d="M284.5,213.6c0-1.1-0.9-2-2-2c-1.1,0-2,0.9-2,2
		v69.7c0,1.1,0.9,2,2,2c1.1,0,2-0.9,2-2V213.6L284.5,213.6z"/>
	<polygon display="inline" fill-rule="evenodd" clip-rule="evenodd" fill="#8682F8" points="177.3,202.7 118.1,170.4 117.6,171.3 
		176.7,203.7 177.3,202.7 	"/>
	<polygon display="inline" fill-rule="evenodd" clip-rule="evenodd" fill="#8682F8" points="224,172.8 177.3,202.8 177.9,203.7 
		224.6,173.7 224,172.8 	"/>
	<polygon display="inline" fill-rule="evenodd" clip-rule="evenodd" fill="#8682F8" points="277.2,189.8 224.2,173.2 223.9,174.2 
		276.9,190.8 277.2,189.8 	"/>
	<path display="inline" fill-rule="evenodd" clip-rule="evenodd" fill="#8682F8" d="M177.3,200.3c1.1,0,2.1,0.9,2.1,2.1
		s-0.9,2.1-2.1,2.1s-2.1-0.9-2.1-2.1S176.1,200.3,177.3,200.3L177.3,200.3z"/>
	<path display="inline" fill-rule="evenodd" clip-rule="evenodd" fill="#8682F8" d="M223.6,171.5c1.1,0,2.1,0.9,2.1,2.1
		s-0.9,2.1-2.1,2.1c-1.1,0-2.1-0.9-2.1-2.1S222.4,171.5,223.6,171.5L223.6,171.5z"/>
	<path display="inline" fill-rule="evenodd" clip-rule="evenodd" fill="#8682F8" d="M277.5,188.2c1.1,0,2.1,0.9,2.1,2.1
		c0,1.1-0.9,2.1-2.1,2.1c-1.1,0-2.1-0.9-2.1-2.1C275.5,189.1,276.4,188.2,277.5,188.2L277.5,188.2z"/>
	<path display="inline" fill-rule="evenodd" clip-rule="evenodd" fill="#8682F8" d="M118,168.3c1.1,0,2.1,0.9,2.1,2.1
		s-0.9,2.1-2.1,2.1c-1.1,0-2.1-0.9-2.1-2.1S116.9,168.3,118,168.3L118,168.3z"/>
</g>
<g display="none">
	<path display="inline" fill-rule="evenodd" clip-rule="evenodd" fill="#FAA5B4" d="M201.3,12c0,0-35.4,41.4-18.5,153.3l21,35.3
		C203.8,200.6,250.7,102.7,201.3,12L201.3,12z"/>
	<g display="inline">
		<defs>
			<path id="SVGID_15_" d="M201.3,12c0,0-35.4,41.4-18.5,153.3l21,35.3C203.8,200.6,250.7,102.7,201.3,12L201.3,12z"/>
		</defs>
		<clipPath id="SVGID_16_">
			<use xlink:href="#SVGID_15_"  overflow="visible"/>
		</clipPath>
		<path clip-path="url(#SVGID_16_)" fill-rule="evenodd" clip-rule="evenodd" fill="#FFFFFF" d="M200.3,223.6
			c0,0-5.5-140.5,0.8-192.1C201.1,31.5,199.9,182.6,200.3,223.6L200.3,223.6z"/>
	</g>
	<path display="inline" fill-rule="evenodd" clip-rule="evenodd" fill="#FF8EA2" d="M254.2,97.1c0,0-62.4,14.5-52.9,103.5
		C201.3,200.6,253.4,204.9,254.2,97.1L254.2,97.1z"/>
	<g display="inline">
		<defs>
			<path id="SVGID_17_" d="M254.2,97.1c0,0-62.4,14.5-52.9,103.5C201.3,200.6,253.4,204.9,254.2,97.1L254.2,97.1z"/>
		</defs>
		<clipPath id="SVGID_18_">
			<use xlink:href="#SVGID_17_"  overflow="visible"/>
		</clipPath>
		<path clip-path="url(#SVGID_18_)" fill-rule="evenodd" clip-rule="evenodd" fill="#FFFFFF" d="M254.2,98.4
			c0,0-39.3,63.8-50.4,108.7C203.8,207.1,218.5,160.7,254.2,98.4L254.2,98.4z"/>
	</g>
	<path display="inline" fill-rule="evenodd" clip-rule="evenodd" fill="#FF3F67" d="M152.6,93.4c0,0-18.7,52.3,21,107.2l26,19.7
		C199.6,220.3,215.3,142.7,152.6,93.4L152.6,93.4z"/>
	<g display="inline">
		<defs>
			<path id="SVGID_19_" d="M152.6,93.4c0,0-18.7,52.3,21,107.2l26,19.7C199.6,220.3,215.3,142.7,152.6,93.4L152.6,93.4z"/>
		</defs>
		<clipPath id="SVGID_20_">
			<use xlink:href="#SVGID_19_"  overflow="visible"/>
		</clipPath>
		<path clip-path="url(#SVGID_20_)" fill-rule="evenodd" clip-rule="evenodd" fill="#FFFFFF" d="M155.8,97.1c0,0,7,100.5,72.1,144.5
			C227.9,241.6,172.5,208.6,155.8,97.1L155.8,97.1z"/>
	</g>
	<path display="inline" fill-rule="evenodd" clip-rule="evenodd" fill="#018CDA" d="M235.5,278l-70.4-0.2l5.6,83.1
		c0,0,0.6,20.4,9,22l41.9,0.4c0,0,7.9,1.5,8.8-24.8L235.5,278L235.5,278z"/>
	<g display="inline">
		<defs>
			<path id="SVGID_21_" d="M235.5,278l-70.4-0.2l5.6,83.1c0,0,0.6,20.4,9,22l41.9,0.4c0,0,7.9,1.5,8.8-24.8L235.5,278L235.5,278z"/>
		</defs>
		<clipPath id="SVGID_22_">
			<use xlink:href="#SVGID_21_"  overflow="visible"/>
		</clipPath>
		<path clip-path="url(#SVGID_22_)" fill-rule="evenodd" clip-rule="evenodd" fill="#007AC5" d="M229.8,235.9
			c-2.3,45.7-2.7,89.9-9,134.4c-2.6,18.2-8.8,23.6-17.2,33c-0.7,0.8-2.5,2.7-1.8,4.7c2.6,7.3,23.4,3,27.2,3
			c34.6,0,47.8-27,45.4-92.4c-0.6-17.5-4.7-53.8-16.1-61.7c-0.4-0.3-0.8-0.4-1.2-0.6c-1.3-0.7-1.1-0.5-2.2-0.6
			c-9.8-0.9-19.1-8-28.8-8.8c-0.5,0-5.8,0-5.8-0.7"/>
	</g>
	<path display="inline" fill-rule="evenodd" clip-rule="evenodd" fill="#FAA5B4" d="M138,166.9c0,0-6.5,75.1,63.7,82
		c0,0,53-22.8,52.5-83.5c0.4-0.3-49.3,6.2-57.9,44.7C196.3,210,187.8,183.6,138,166.9L138,166.9z"/>
	<g display="inline">
		<defs>
			<path id="SVGID_23_" d="M138,166.9c0,0-6.5,75.1,63.7,82c0,0,53-22.8,52.5-83.5c0.4-0.3-49.3,6.2-57.9,44.7
				C196.3,210,187.8,183.6,138,166.9L138,166.9z"/>
		</defs>
		<clipPath id="SVGID_24_">
			<use xlink:href="#SVGID_23_"  overflow="visible"/>
		</clipPath>
		<path clip-path="url(#SVGID_24_)" fill-rule="evenodd" clip-rule="evenodd" fill="#FFFFFF" d="M247.4,175.1
			c0,0-37.5,35.1-47.9,60.9C199.6,235.9,205.7,219.5,247.4,175.1L247.4,175.1z"/>
		<path clip-path="url(#SVGID_24_)" fill-rule="evenodd" clip-rule="evenodd" fill="#FFFFFF" d="M137.8,165.3
			c0,0,27.8,66.9,61.8,70.6C199.6,235.9,175.3,238.9,137.8,165.3L137.8,165.3z"/>
	</g>
	<path display="inline" fill-rule="evenodd" clip-rule="evenodd" fill="#FF8EA2" d="M140.4,197.3c0,0,2.7,57,59.9,75.1
		C200.3,272.4,224.2,217.2,140.4,197.3L140.4,197.3z"/>
	<g display="inline">
		<defs>
			<path id="SVGID_25_" d="M140.4,197.3c0,0,2.7,57,59.9,75.1C200.3,272.4,224.2,217.2,140.4,197.3L140.4,197.3z"/>
		</defs>
		<clipPath id="SVGID_26_">
			<use xlink:href="#SVGID_25_"  overflow="visible"/>
		</clipPath>
		<path clip-path="url(#SVGID_26_)" fill-rule="evenodd" clip-rule="evenodd" fill="#FFFFFF" d="M147.9,204.7
			c0,0,34.4,52.9,65.9,54.9C213.8,259.6,188.9,259.5,147.9,204.7L147.9,204.7z"/>
	</g>
	<path display="inline" fill-rule="evenodd" clip-rule="evenodd" fill="#FF3F67" d="M241.2,203.6c0,0-62.5,21.5-40.9,64.1
		C200.3,267.7,243.6,271.3,241.2,203.6L241.2,203.6z"/>
	<g display="inline">
		<defs>
			<path id="SVGID_27_" d="M241.2,203.6c0,0-62.5,21.5-40.9,64.1C200.3,267.7,243.6,271.3,241.2,203.6L241.2,203.6z"/>
		</defs>
		<clipPath id="SVGID_28_">
			<use xlink:href="#SVGID_27_"  overflow="visible"/>
		</clipPath>
		<path clip-path="url(#SVGID_28_)" fill-rule="evenodd" clip-rule="evenodd" fill="#FFFFFF" d="M240.7,204.7
			c0,0-20.2,46.3-48.6,66.6C192.1,271.3,216,253,240.7,204.7L240.7,204.7z"/>
	</g>
	<path display="inline" fill-rule="evenodd" clip-rule="evenodd" fill="#FF3F67" d="M174,248.9c0,0-4.7,26.3,21.5,29
		C195.5,277.8,217.5,255.9,174,248.9L174,248.9z"/>
	<g display="inline">
		<defs>
			<path id="SVGID_29_" d="M174,248.9c0,0-4.7,26.3,21.5,29C195.5,277.8,217.5,255.9,174,248.9L174,248.9z"/>
		</defs>
		<clipPath id="SVGID_30_">
			<use xlink:href="#SVGID_29_"  overflow="visible"/>
		</clipPath>
		<path clip-path="url(#SVGID_30_)" fill-rule="evenodd" clip-rule="evenodd" fill="#FFFFFF" d="M203.4,278.3c0,0-27-7.3-31.5-37.5
			C171.9,240.8,173.3,263.2,203.4,278.3L203.4,278.3z"/>
	</g>
	<path display="inline" fill-rule="evenodd" clip-rule="evenodd" fill="#FF8EA2" d="M225.8,248.2c0,0-24.5-2.1-31.1,29
		C194.7,277.1,222.9,287.2,225.8,248.2L225.8,248.2z"/>
	<g display="inline">
		<defs>
			<path id="SVGID_31_" d="M225.8,248.2c0,0-24.5-2.1-31.1,29C194.7,277.1,222.9,287.2,225.8,248.2L225.8,248.2z"/>
		</defs>
		<clipPath id="SVGID_32_">
			<use xlink:href="#SVGID_31_"  overflow="visible"/>
		</clipPath>
		<path clip-path="url(#SVGID_32_)" fill-rule="evenodd" clip-rule="evenodd" fill="#FFFFFF" d="M190,278.3c0,0,23.6-0.2,33.7-29.4
			C223.7,248.9,214.4,273.4,190,278.3L190,278.3z"/>
	</g>
</g>
<g display="none">
	<polygon display="inline" fill-rule="evenodd" clip-rule="evenodd" fill="#FF7700" points="302.4,228.3 80.8,228.3 80.8,269.7 
		302.4,269.7 302.4,228.3 	"/>
	<polygon display="inline" fill-rule="evenodd" clip-rule="evenodd" fill="#FF7700" points="300.1,227.7 80.8,227.7 80.8,267.5 
		300.1,267.5 300.1,227.7 	"/>
	<polygon display="inline" fill-rule="evenodd" clip-rule="evenodd" fill="#FB6D50" points="266.1,197 115.9,197 115.9,228.3 
		266.1,228.3 266.1,197 	"/>
	<path display="inline" fill-rule="evenodd" clip-rule="evenodd" fill="#FF8670" d="M137.1,199.3c7.2,0,13,5.8,13,13
		c0,7.2-5.8,13-13,13c-7.2,0-13-5.8-13-13C124.1,205.1,129.9,199.3,137.1,199.3L137.1,199.3z"/>
	<path display="inline" fill-rule="evenodd" clip-rule="evenodd" fill="#FFFFFF" d="M137.1,203.8c4.7,0,8.5,3.8,8.5,8.5
		c0,4.7-3.8,8.5-8.5,8.5c-4.7,0-8.5-3.8-8.5-8.5C128.6,207.6,132.4,203.8,137.1,203.8L137.1,203.8z"/>
	<polygon display="inline" fill-rule="evenodd" clip-rule="evenodd" fill="#FFFFFF" points="260.1,203.9 154.1,203.9 154.1,222.6 
		260.1,222.6 260.1,203.9 	"/>
	<path display="inline" fill-rule="evenodd" clip-rule="evenodd" fill="#FF8670" d="M232.6,212.4c1.6,0,2.9,1.3,2.9,2.9
		c0,1.6-1.3,2.9-2.9,2.9c-1.6,0-2.9-1.3-2.9-2.9C229.7,213.7,231,212.4,232.6,212.4L232.6,212.4z"/>
	<path display="inline" fill-rule="evenodd" clip-rule="evenodd" fill="#FF8670" d="M240.5,212.4c1.6,0,2.9,1.3,2.9,2.9
		c0,1.6-1.3,2.9-2.9,2.9c-1.6,0-2.9-1.3-2.9-2.9C237.5,213.7,238.8,212.4,240.5,212.4L240.5,212.4z"/>
	<path display="inline" fill-rule="evenodd" clip-rule="evenodd" fill="#FF8670" d="M249.9,212.4c1.6,0,2.9,1.3,2.9,2.9
		c0,1.6-1.3,2.9-2.9,2.9c-1.6,0-2.9-1.3-2.9-2.9C247,213.7,248.3,212.4,249.9,212.4L249.9,212.4z"/>
	<path display="inline" fill-rule="evenodd" clip-rule="evenodd" fill="#FF6D00" d="M108,230.3c9.1,0,16.6,7.4,16.6,16.6
		c0,9.1-7.4,16.6-16.6,16.6c-9.1,0-16.6-7.4-16.6-16.6C91.4,237.8,98.9,230.3,108,230.3L108,230.3z"/>
	<path display="inline" fill-rule="evenodd" clip-rule="evenodd" fill="#FFFFFF" d="M108,236.1c6,0,10.8,4.8,10.8,10.8
		c0,6-4.8,10.8-10.8,10.8c-6,0-10.8-4.8-10.8-10.8C97.2,240.9,102,236.1,108,236.1L108,236.1z"/>
	<polygon display="inline" fill-rule="evenodd" clip-rule="evenodd" fill="#FFFFFF" points="287.2,236.2 129.6,236.2 129.6,259.9 
		287.2,259.9 287.2,236.2 	"/>
	<path display="inline" fill-rule="evenodd" clip-rule="evenodd" fill="#F86208" d="M235.7,247c2.1,0,3.7,1.7,3.7,3.7
		s-1.7,3.7-3.7,3.7c-2.1,0-3.7-1.7-3.7-3.7S233.6,247,235.7,247L235.7,247z"/>
	<path display="inline" fill-rule="evenodd" clip-rule="evenodd" fill="#F86208" d="M245.7,247c2.1,0,3.7,1.7,3.7,3.7
		s-1.7,3.7-3.7,3.7c-2.1,0-3.7-1.7-3.7-3.7S243.6,247,245.7,247L245.7,247z"/>
	<path display="inline" fill-rule="evenodd" clip-rule="evenodd" fill="#F86208" d="M257.7,247c2.1,0,3.7,1.7,3.7,3.7
		s-1.7,3.7-3.7,3.7c-2.1,0-3.7-1.7-3.7-3.7S255.6,247,257.7,247L257.7,247z"/>
</g>
<g display="none">
	<path display="inline" fill-rule="evenodd" clip-rule="evenodd" fill="#B1B2FF" d="M292.2,134.3l-123.9-7.5c0,0-10.7-3.3-13.6,5.2
		L74.9,302.5c0,0-6,9.8,4.1,12.4l123.3,48c0,0,10.5,5.1,17.4-2.5l77-211.4C296.7,149.1,302.8,137,292.2,134.3L292.2,134.3z"/>
	<path display="inline" fill-rule="evenodd" clip-rule="evenodd" fill="#8682F8" d="M274.2,151.8l-104.1-6.6c0,0-8.8-2.8-11.3,4.4
		l-65.4,145c0,0-4.9,8.2,3.4,10.4l103.1,34.7c0,0,8.7,4.3,14.4-2.1l63.6-173.4C277.9,164.2,282.9,154.1,274.2,151.8L274.2,151.8z"/>
	<path display="inline" fill-rule="evenodd" clip-rule="evenodd" fill="#FCFFFE" d="M272.3,148.1l-104.1-6.6c0,0-8.8-2.8-11.3,4.4
		l-65.4,145c0,0-4.9,8.2,3.4,10.4L198,336c0,0,8.7,4.3,14.4-2.1L276,160.5C276,160.5,281.1,150.4,272.3,148.1L272.3,148.1z"/>
	<polygon display="inline" fill-rule="evenodd" clip-rule="evenodd" fill="#EDECFF" points="253.1,171.6 160.8,162.1 160,164.1 
		252.5,173.5 253.1,171.6 	"/>
	<polygon display="inline" fill-rule="evenodd" clip-rule="evenodd" fill="#EDECFF" points="219.5,227 142,212.1 141.2,213.8 
		218.8,228.7 219.5,227 	"/>
	<polygon display="inline" fill-rule="evenodd" clip-rule="evenodd" fill="#EDECFF" points="188.8,269.9 125,255 124.4,256.7 
		188.3,271.5 188.8,269.9 	"/>
	<polygon display="inline" fill-rule="evenodd" clip-rule="evenodd" fill="#EDECFF" points="249.2,185.8 157.2,174.2 156.4,176.1 
		248.6,187.7 249.2,185.8 	"/>
	<polygon display="inline" fill-rule="evenodd" clip-rule="evenodd" fill="#EDECFF" points="215.2,239.3 138.1,222.6 137.3,224.2 
		214.5,241 215.2,239.3 	"/>
	<polygon display="inline" fill-rule="evenodd" clip-rule="evenodd" fill="#EDECFF" points="185.3,282.1 121.8,265.4 121.1,267.1 
		184.7,283.8 185.3,282.1 	"/>
	<polygon display="inline" fill-rule="evenodd" clip-rule="evenodd" fill="#EDECFF" points="236.3,205.3 152.6,192.7 151.8,194.1 
		235.7,206.7 236.3,205.3 	"/>
	<polygon display="inline" fill-rule="evenodd" clip-rule="evenodd" fill="#EDECFF" points="202.8,255.7 132.8,238.6 132.1,239.8 
		202.2,256.8 202.8,255.7 	"/>
	<polygon display="inline" fill-rule="evenodd" clip-rule="evenodd" fill="#EDECFF" points="175.1,298.4 117.4,281.4 116.8,282.6 
		174.6,299.6 175.1,298.4 	"/>
	<path display="inline" fill-rule="evenodd" clip-rule="evenodd" fill="#8682F8" d="M180.2,147.4l71.9,5.1c0,0,4.5-9.1-8.5-12.9
		c0,0-12.3-0.4-7.1-14.3c0,0,0.6-14.2-17.2-9.1c0,0-7.4,2.7-9.4,12.6c0,0-1.7,6.5-14.1,7.9C195.8,136.7,184.4,135.4,180.2,147.4
		L180.2,147.4z"/>
	<path display="inline" fill-rule="evenodd" clip-rule="evenodd" fill="#FFFFFF" d="M224.8,122.4c2.9,1.2,4.1,4.9,2.7,8.2
		c-1.4,3.3-4.8,5.1-7.7,3.9c-2.9-1.2-4.1-4.9-2.7-8.2C218.5,123,221.9,121.2,224.8,122.4L224.8,122.4z"/>
</g>
</svg>
