<?xml version="1.0" encoding="UTF-8"?>
<svg width="1521px" height="1164px" viewBox="0 0 1521 1164" version="1.1" xmlns="http://www.w3.org/2000/svg" xmlns:xlink="http://www.w3.org/1999/xlink">
    <title>大数据背景</title>
    <defs>
        <path d="M64.599507,856.73212 C17.019277,1035.8793 229.431907,1162.58494 434.510699,1162.58494 C639.589492,1162.58494 776.951834,1080.85379 981.023017,1028.66347 C1185.0942,976.47315 1286.30097,991.612027 1402.90583,914.922074 C1519.5107,838.23212 1555.14109,550.874595 1479.02346,436.803357 C1402.90583,322.73212 1272.08902,295.794667 1288.25108,194.564636 C1304.41313,93.334605 1232.4648,-80.3684391 936.159946,42.1082504 C639.855093,164.58494 546.26099,76.4576786 379.26928,42.1082504 C212.27757,7.75882233 -70.974722,103.027029 16.3341587,316.08494 C103.643039,529.142851 112.179737,677.58494 64.599507,856.73212 Z" id="path-1"></path>
        <circle id="path-3" cx="199.5" cy="200.111932" r="199.5"></circle>
    </defs>
    <g id="页面-1" stroke="none" stroke-width="1" fill="none" fill-rule="evenodd">
        <g id="画板" transform="translate(-2256.000000, -8820.000000)">
            <g id="大数据背景" transform="translate(2256.000000, 8820.000000)">
                <g id="椭圆形-+-路径-118蒙版" transform="translate(0.489301, 0.415060)">
                    <mask id="mask-2" fill="white">
                        <use xlink:href="#path-1"></use>
                    </mask>
                    <use id="蒙版" fill="#FFF2D6" xlink:href="#path-1"></use>
                    <path d="M1085.5107,801.58494 C1114.14656,716.557779 1160.75002,669.37915 1225.32109,660.049052 C1289.89215,650.718955 1318.52801,604.944452 1311.22868,522.725542 C1300.87118,473.581137 1316.84914,448.867603 1359.16256,448.58494 C1401.47598,448.305953 1414.81695,490.800101 1399.18547,576.067385 C1384.98725,636.721227 1331.52435,678.518765 1238.79679,701.459999 C1146.06922,724.401232 1094.97386,757.776213 1085.5107,801.58494 Z" id="路径-118" fill="#FFE6AE" mask="url(#mask-2)"></path>
                    <path d="M330.961115,145.776862 C389.627782,165.349663 404.961115,205.642167 376.961115,266.654375 C334.961115,358.172688 246.556753,360.172688 260.961115,470.172688 C275.365477,580.172688 276.052594,710.672688 177.506855,784.672688 C200.006122,679.430777 198.220112,595.294679 172.148822,532.264397 C133.041889,437.718972 154.337815,388.093879 204.961115,333.807036 C255.584415,279.520193 295.556753,270.568513 285.461115,208.172688 C278.73069,166.575471 293.897356,145.776862 330.961115,145.776862 Z" id="路径-119" fill="#FFE6AE" mask="url(#mask-2)" transform="translate(271.238263, 465.224775) rotate(-43.000000) translate(-271.238263, -465.224775) "></path>
                    <circle id="椭圆形" fill="#FFE6AE" mask="url(#mask-2)" cx="896.010699" cy="204.08494" r="31.5"></circle>
                    <circle id="椭圆形备份-57" fill="#FFE6AE" mask="url(#mask-2)" cx="207.510699" cy="172.58494" r="15"></circle>
                    <circle id="椭圆形备份-56" fill="#FFE6AE" mask="url(#mask-2)" cx="1458.0107" cy="647.08494" r="22.5"></circle>
                    <circle id="椭圆形" fill="#FFE6AE" mask="url(#mask-2)" cx="309.5" cy="856.5" r="16.5"></circle>
                    <circle id="椭圆形" fill="#FFE6AE" mask="url(#mask-2)" cx="545.5" cy="153.5" r="11.5"></circle>
                    <circle id="椭圆形" fill="#FFE6AE" mask="url(#mask-2)" cx="757" cy="200" r="19"></circle>
                    <circle id="椭圆形" fill="#FFE6AE" mask="url(#mask-2)" cx="1186.0107" cy="204.08494" r="15.5"></circle>
                    <circle id="椭圆形" fill="#FFE6AE" mask="url(#mask-2)" cx="776.5" cy="1036.5" r="13.5"></circle>
                    <path d="M88.8329729,558.891969 C110.167651,547.275985 130.318179,551.705323 149.284557,572.179981 C158.215081,584.708784 163.684799,601.477028 165.693713,622.484711 C167.702626,643.492395 182.497561,662.294814 210.078516,678.891969 C243.078516,688.891969 259.578516,709.558636 259.578516,740.891969 C242.119026,714.971539 217.837561,703.324765 186.734123,705.951647 C155.630685,708.578528 134.297352,690.225302 122.734123,650.891969 C122.08928,636.303938 113.916394,622.303938 98.2154656,608.891969 C82.5145375,595.48 79.3870399,578.813334 88.8329729,558.891969 Z" id="路径-398" fill="#FFE6AE" mask="url(#mask-2)"></path>
                    <path d="M730.256581,252.20893 C749.280753,241.850935 767.249016,245.800584 784.16137,264.057875 C792.124735,275.229832 797.002093,290.182106 798.793445,308.914696 C800.584797,327.647287 813.777468,344.413439 838.371457,359.213153 C867.797619,368.130171 882.510699,386.558677 882.510699,414.498668 C866.942039,391.385373 845.290212,380.999923 817.555218,383.342318 C789.820225,385.684713 770.797252,369.319107 760.486299,334.245501 C759.911291,321.237326 752.623514,308.7535 738.622967,296.794023 C724.62242,284.834545 721.833625,269.972848 730.256581,252.20893 Z" id="路径-398备份" fill="#FFE6AE" mask="url(#mask-2)" transform="translate(804.010699, 330.541804) scale(-1, 1) translate(-804.010699, -330.541804) "></path>
                    <path d="M1372.58081,691.738827 C1354.51883,710.419636 1349.56247,730.184707 1308.90227,720.58494 C1281.79547,714.185096 1252.11308,737.185096 1219.85509,789.58494 C1255.81952,761.507502 1288.29917,752.154809 1317.29404,761.526861 C1346.28892,770.898914 1378.93779,760.884897 1415.24066,731.48481 C1435.69491,710.709292 1440.80847,693.409335 1430.58135,679.58494 C1415.24066,658.848348 1390.64278,673.058017 1372.58081,691.738827 Z" id="路径-133" fill="#FFE6AE" mask="url(#mask-2)"></path>
                    <path d="M54.6343967,675.58494 C73.2124014,755.700841 103.336286,798.587887 145.006052,804.246077 C207.510699,812.733363 275.199486,855.585021 288.855093,901.084981 C302.510699,946.58494 319.701975,1007.58494 412.260699,1003.58494 C504.819423,999.58494 607.510699,991.608948 663.010699,1065.58494 C700.010699,1114.90227 728.177366,1165.2356 747.510699,1216.58494 C408.6629,1287.27671 194.504451,1264.46806 105.035351,1148.15898 C15.5662517,1031.8499 -1.23406646,874.325224 54.6343967,675.58494 Z" id="路径-134" fill="#FFE6AE" mask="url(#mask-2)"></path>
                    <path d="M1506.16904,720.58494 C1497.87458,777.485991 1464.3218,811.152658 1405.5107,821.58494 C1317.29404,837.233363 1242.85509,830.08494 1191.35509,887.58494 C1139.85509,945.08494 1051.19949,994.08494 957.855093,969.58494 C895.625497,953.251607 837.292164,1003.25161 782.855093,1119.58494 C1040.12642,1106.89292 1232.48984,1065.39292 1359.94534,995.08494 C1487.40083,924.776959 1536.14207,833.276959 1506.16904,720.58494 Z" id="路径-165" fill="#FFE6AE" mask="url(#mask-2)"></path>
                    <path d="M864.510699,952.487583 C904.190603,934.361649 939.485809,931.032337 970.396317,942.499646 C1016.76208,959.700609 1068.18118,927.167789 1085.6792,913.030913 C1103.17721,898.894038 1118.98405,877.872253 1149.37653,855.133786 C1169.63818,839.974809 1175.64477,824.448605 1167.39632,808.555175 C1145.57078,794.626687 1123.23745,801.572974 1100.39632,829.394038 C1066.13462,871.125633 1066.13462,884.769118 1052.05192,898.894038 C1037.96923,913.018957 1015.61375,933.580166 960.049822,924.394038 C923.007202,918.269952 891.160828,927.634467 864.510699,952.487583 Z" id="路径-399" fill="#FFE6AE" mask="url(#mask-2)"></path>
                    <path d="M696.510699,1074.91113 C657.177366,993.581388 600.177366,952.916516 525.510699,952.916516 C413.510699,952.916516 376.44355,904.988941 364.291725,886.60891 C352.1399,868.228879 347.329676,823.894345 364.291725,810.58494 C381.253774,797.275535 411.815516,795.169855 441.397526,827.58494 C470.979535,860.000025 504.916616,914.997843 571.416616,920.08494 C615.749949,923.476338 657.447977,975.08507 696.510699,1074.91113 Z" id="路径-166" fill="#FFE6AE" mask="url(#mask-2)"></path>
                    <path d="M773.141371,1027.25287 C760.363082,987.31778 750.321316,937.111364 687.95014,851.196305 C625.578963,765.281245 549.320221,686.435131 609.320221,658.281245 C669.320221,630.127358 781.358888,960.823908 773.141371,1027.25287 Z" id="路径-167" fill="#FFE6AE" mask="url(#mask-2)" transform="translate(680.540178, 841.918905) rotate(10.000000) translate(-680.540178, -841.918905) "></path>
                    <path d="M424.510699,172.58494 C436.760699,208.544145 455.346558,226.58494 502.510699,231.58494 C533.95346,234.918273 557.621343,254.476257 573.514349,290.258891 C582.408178,320.146605 597.77239,351.351788 619.606986,383.874439 C605.105724,338.464879 597.855093,304.564239 597.855093,282.172519 C597.855093,248.58494 576.345922,202.58494 546.434186,195.973008 C516.522451,189.361076 480.541727,184.506266 480.541727,146.346224 C480.541727,120.906195 465.198051,111.817556 434.510699,119.080305 C419.677366,130.777258 416.344033,148.612137 424.510699,172.58494 Z" id="路径-168" fill="#FFE6AE" mask="url(#mask-2)"></path>
                </g>
                <g id="编组-16" transform="translate(257.344393, 683.000000)">
                    <polygon id="矩形" fill="#A0FFE7" points="6.84277049 -1.91846539e-13 75.4934149 2.55795385e-13 103 28.4002335 103 121.661137 6.84277049 121.661137"></polygon>
                    <polygon id="路径-300" fill="#5CE5C2" points="75.4934149 -3.55271368e-15 75.4934149 28.4002335 103 28.4002335"></polygon>
                    <rect id="矩形" fill="#FFDF80" x="0" y="81" width="64" height="24" rx="1"></rect>
                    <text id="PNG" font-family="PingFangSC-Regular, PingFang SC" font-size="18" font-weight="normal" fill="#000000">
                        <tspan x="13" y="100">PNG</tspan>
                    </text>
                    <path d="M80.6802165,3 L109,32.1796482 L109,128 L10,128 L10,3 L80.6802165,3 Z M79.411,6 L13,6 L13,125 L106,125 L106,33.396 L79.411,6 Z" id="矩形备份-27" fill="#000000" fill-rule="nonzero"></path>
                    <path d="M79.4660609,5.69743569 L79.4660609,32 C79.4660609,32.8284271 80.1376338,33.5 80.9660609,33.5 L107.436632,33.5 C108.775293,33.5 109.443495,31.8795265 108.49391,30.9359685 L82.023339,4.63340423 C81.0770206,3.69309204 79.4660609,4.36337965 79.4660609,5.69743569 Z M82.466,9.303 L103.798,30.499 L82.466,30.499 L82.466,9.303 Z" id="路径-300备份" fill="#000000" fill-rule="nonzero"></path>
                    <path d="M67,84 L67,109 L5,109 L5,84 L67,84 Z M65,86 L7,86 L7,107 L65,107 L65,86 Z" id="矩形" fill="#000000" fill-rule="nonzero"></path>
                </g>
                <g id="编组-14" transform="translate(178.000000, 203.000000)">
                    <g id="路径-302" transform="translate(16.000000, 23.388068)">
                        <mask id="mask-4" fill="white">
                            <use xlink:href="#path-3"></use>
                        </mask>
                        <use id="蒙版" fill="#FF6A6A" xlink:href="#path-3"></use>
                        <polygon fill="#A0FFE7" mask="url(#mask-4)" points="116.5 20.111932 199.5 204.611932 321 20.111932 218.75 -30 116.5 0.611932031"></polygon>
                        <polygon id="路径-303" fill="#FFDF80" mask="url(#mask-4)" points="3.3789808 264.361932 199.5 204.611932 110.992746 8.01662544 35.6158637 45.8556337 -28.8449222 169.611932"></polygon>
                    </g>
                    <path d="M491,180.5 C491.828427,180.5 492.5,181.171573 492.5,182 C492.5,298.532082 398.032082,393 281.5,393 C164.967918,393 70.5,298.532082 70.5,182 C70.5,181.171573 71.1715729,180.5 72,180.5 C72.8284271,180.5 73.5,181.171573 73.5,182 C73.5,296.875228 166.624772,390 281.5,390 C396.375228,390 489.5,296.875228 489.5,182 C489.5,181.171573 490.171573,180.5 491,180.5 Z" id="路径" fill="#000000" fill-rule="nonzero" transform="translate(281.500000, 286.750000) rotate(-38.000000) translate(-281.500000, -286.750000) "></path>
                    <path d="M107.165342,39.8681478 C21.9619422,86.4442993 -10.1107457,167.778342 10.964177,283.494606 C11.1282987,284.395751 12.0547032,284.940662 12.9220609,284.646234 L199.807774,221.207116 C200.670758,220.914172 201.075257,219.925687 200.665198,219.111801 C170.443446,159.127514 139.960219,99.5875919 109.215516,40.4920358 C108.827605,39.746418 107.902833,39.4650007 107.165342,39.8681478 Z M107.264,43.243 L112.698394,53.6993483 C139.308382,104.956818 165.722039,156.548044 191.939365,208.473027 L197.209,218.921 L13.61,281.244 L13.9156268,282.957071 C-6.73245703,169.584454 23.9903361,90.0163016 106.100403,43.8881031 L107.264,43.243 Z" id="路径-3" fill="#000000" fill-rule="nonzero" transform="translate(102.761276, 162.205269) rotate(2.000000) translate(-102.761276, -162.205269) "></path>
                    <path d="M326.053273,56.1791206 C326.506632,55.4857542 327.436237,55.2911899 328.129603,55.744549 C328.782184,56.17124 328.992918,57.0197956 328.637484,57.6962133 L328.564175,57.8208794 L216.755451,228.820879 C216.302092,229.514246 215.372487,229.70881 214.679121,229.255451 C214.02654,228.82876 213.815806,227.980204 214.17124,227.303787 L214.244549,227.179121 L326.053273,56.1791206 Z" id="路径-4" fill="#000000" fill-rule="nonzero"></path>
                    <path d="M135.5,8 C141.29899,8 146,12.7010101 146,18.5 C146,24.2989899 141.29899,29 135.5,29 C129.70101,29 125,24.2989899 125,18.5 C125,12.7010101 129.70101,8 135.5,8 Z M135.5,11 C131.357864,11 128,14.3578644 128,18.5 C128,22.6421356 131.357864,26 135.5,26 C139.642136,26 143,22.6421356 143,18.5 C143,14.3578644 139.642136,11 135.5,11 Z" id="椭圆形" fill="#000000" fill-rule="nonzero"></path>
                    <path d="M155,0 C158.313708,0 161,2.6862915 161,6 C161,9.3137085 158.313708,12 155,12 C151.686292,12 149,9.3137085 149,6 C149,2.6862915 151.686292,0 155,0 Z M155,3 C153.343146,3 152,4.34314575 152,6 C152,7.65685425 153.343146,9 155,9 C156.656854,9 158,7.65685425 158,6 C158,4.34314575 156.656854,3 155,3 Z" id="椭圆形备份-25" fill="#000000" fill-rule="nonzero"></path>
                    <circle id="椭圆形备份-24" stroke="#000000" stroke-width="3" cx="241.5" cy="434.5" r="4"></circle>
                </g>
                <g id="编组-2" transform="translate(807.344393, 305.000000)">
                    <rect id="矩形" fill="#A0FFE7" x="0" y="0" width="394" height="277"></rect>
                    <polygon id="路径-281" fill="#FFFFFF" points="0 261.009443 81.830641 176.668255 171.482921 232.76755 271.764604 87 394 261.009443"></polygon>
                    <path d="M288.309727,92.1664225 L191.137,237.538 L104.773584,181.917593 C104.165966,181.526277 103.3657,181.623879 102.869946,182.149764 L22.9085327,266.971069 C22.0064088,267.928022 22.6848625,269.5 24,269.5 L409,269.5 C410.205463,269.5 410.918496,268.150046 410.238929,267.154391 L290.795712,92.1543906 C290.196694,91.2767505 288.900222,91.2830253 288.309727,92.1664225 Z M289.569,95.679 L406.16,266.5 L27.474,266.5 L104.197,185.114 L190.753628,240.858441 C191.441724,241.301586 192.358029,241.111348 192.812854,240.430916 L289.569,95.679 Z" id="路径-281备份" fill="#000000" fill-rule="nonzero"></path>
                    <circle id="椭圆形" fill="#FF6A6A" cx="68.5" cy="86.5" r="30.5"></circle>
                    <path d="M419,23 L419,300 L25,300 L25,23 L419,23 Z M416,26 L28,26 L28,297 L416,297 L416,26 Z" id="矩形备份-8" fill="#000000" fill-rule="nonzero"></path>
                </g>
                <g id="编组" transform="translate(423.000000, 363.000000)">
                    <rect id="矩形" fill="#FFDF80" x="0" y="47" width="662" height="463"></rect>
                    <rect id="矩形" fill="#FFFFFF" x="157" y="274" width="55" height="258"></rect>
                    <rect id="矩形备份-3" fill="#FFFFFF" x="241" y="333" width="55" height="199"></rect>
                    <rect id="矩形备份-4" fill="#FFFFFF" x="325" y="174" width="55" height="358"></rect>
                    <rect id="矩形备份-5" fill="#FFFFFF" x="409" y="393" width="55" height="139"></rect>
                    <rect id="矩形备份-6" fill="#FFFFFF" x="493" y="274" width="55" height="258"></rect>
                    <rect id="矩形" fill="#9CFDE9" x="207" y="0" width="67" height="124"></rect>
                    <path d="M529.966193,135.284441 C530.794621,135.284441 531.466193,135.956014 531.466193,136.784441 C531.466193,137.564137 530.871305,138.20489 530.110653,138.277575 L529.966193,138.284441 L48.4688362,138.284441 C47.640409,138.284441 46.9688362,137.612868 46.9688362,136.784441 C46.9688362,136.004745 47.5637242,135.363993 48.3243761,135.291308 L48.4688362,135.284441 L529.966193,135.284441 Z" id="路径-279" fill="#FFFFFF" fill-rule="nonzero"></path>
                    <circle id="椭圆形" fill="#FF6A6A" cx="69.5" cy="115.5" r="8.5"></circle>
                    <circle id="椭圆形备份" fill="#FFA14A" cx="94.5" cy="115.5" r="8.5"></circle>
                    <circle id="椭圆形备份-2" fill="#71C36F" cx="119.5" cy="115.5" r="8.5"></circle>
                    <path d="M484.709913,86.5 C485.538341,86.5 486.209913,87.1715729 486.209913,88 C486.209913,88.7796961 485.615025,89.4204487 484.854373,89.4931334 L484.709913,89.5 L402.061965,89.5 L49.968,89.5 L49.968,553.823 L638.999769,553.823004 C639.779465,553.823004 640.420218,554.417892 640.492902,555.178544 L640.499769,555.323004 C640.499769,556.1027 639.904881,556.743453 639.144229,556.816137 L638.999769,556.823004 L46.9688362,556.823004 L46.9688362,86.5 L484.709913,86.5 Z" id="路径-278" fill="#000000" fill-rule="nonzero"></path>
                    <path d="M569.667237,173.307655 C570.049608,172.572751 570.955339,172.286968 571.690243,172.669339 C572.381917,173.029218 572.675755,173.852695 572.389145,174.561024 L572.328559,174.692345 L436.421247,435.901187 L352.401,254.359 L268.883395,410.210246 L212.109,355.194 L120.645873,463.467975 C120.144688,464.06127 119.281565,464.168354 118.654182,463.738927 L118.532025,463.645873 C117.93873,463.144688 117.831646,462.281565 118.261073,461.654182 L118.354127,461.532025 L211.890509,350.805174 L268.116,405.289 L352.598257,247.640956 L436.579,429.098 L569.667237,173.307655 Z" id="路径-280" fill="#000000" fill-rule="nonzero"></path>
                    <path d="M547.620777,178.558172 L572.078723,172.167212 L577.849779,194.810033 C578.054382,195.612796 577.569477,196.429428 576.766714,196.634031 C576.011172,196.826599 575.243345,196.408392 574.985048,195.689255 L574.942715,195.550966 L569.917,175.833 L548.379223,181.460715 C547.624856,181.657834 546.854522,181.244264 546.591893,180.526698 L546.548728,180.388667 C546.351609,179.634299 546.76518,178.863965 547.482746,178.601337 L547.620777,178.558172 Z" id="路径-2" fill="#000000" fill-rule="nonzero"></path>
                    <circle id="椭圆形" fill="#000000" cx="117" cy="465" r="5"></circle>
                    <circle id="椭圆形备份-3" fill="#000000" cx="212" cy="353" r="5"></circle>
                    <circle id="椭圆形备份-4" fill="#000000" cx="269" cy="408" r="5"></circle>
                    <circle id="椭圆形备份-5" fill="#000000" cx="353" cy="251" r="5"></circle>
                    <circle id="椭圆形备份-6" fill="#000000" cx="436" cy="432" r="5"></circle>
                </g>
                <g id="编组-8备份" transform="translate(1134.344393, 664.000000)">
                    <path d="M115,21.8998701 C115.779696,21.8998701 116.420449,22.4947582 116.493133,23.2554101 L116.5,23.3998701 L116.5,112.39987 C116.5,113.179566 115.905112,113.820319 115.14446,113.893004 L115,113.89987 L26,113.89987 C25.2203039,113.89987 24.5795513,113.304982 24.5068666,112.54433 L24.5,112.39987 L24.5,31.9423975 C24.5,31.1139703 25.1715729,30.4423975 26,30.4423975 C26.7796961,30.4423975 27.4204487,31.0372855 27.4931334,31.7979375 L27.5,31.9423975 L27.5,110.899 L113.5,110.899 L113.5,24.899 L110.232143,24.8998701 C109.452447,24.8998701 108.811694,24.3049821 108.739009,23.5443302 L108.732143,23.3998701 C108.732143,22.620174 109.327031,21.9794215 110.087683,21.9067367 L110.232143,21.8998701 L115,21.8998701 Z" id="路径-293" fill="#000000" fill-rule="nonzero"></path>
                    <rect id="矩形" fill="#A0FFE7" x="16" y="32" width="92" height="73"></rect>
                    <rect id="矩形" fill="#FFDF80" x="0" y="16" width="92" height="76"></rect>
                    <circle id="椭圆形" fill="#FF6A6A" cx="86" cy="16" r="16"></circle>
                    <path d="M94.5,3 C104.164983,3 112,10.8350169 112,20.5 C112,30.1649831 104.164983,38 94.5,38 C84.8350169,38 77,30.1649831 77,20.5 C77,10.8350169 84.8350169,3 94.5,3 Z M94.5,6 C86.4918711,6 80,12.4918711 80,20.5 C80,28.5081289 86.4918711,35 94.5,35 C102.508129,35 109,28.5081289 109,20.5 C109,12.4918711 102.508129,6 94.5,6 Z" id="椭圆形" fill="#010101" fill-rule="nonzero"></path>
                    <path d="M6,26.6538867 C6.77969612,26.6538867 7.42044868,27.2487748 7.49313342,28.0094267 L7.5,28.1538867 L7.5,96.545 L100.5,96.545 L100.5,34.7883117 C100.5,34.0086156 101.094888,33.3678631 101.85554,33.2951783 L102,33.2883117 C102.779696,33.2883117 103.420449,33.8831998 103.493133,34.6438517 L103.5,34.7883117 L103.5,98.0456841 C103.5,98.8253802 102.905112,99.4661328 102.14446,99.5388175 L102,99.5456841 L6,99.5456841 C5.22030388,99.5456841 4.57955132,98.950796 4.50686658,98.1901441 L4.5,98.0456841 L4.5,28.1538867 C4.5,27.3254596 5.17157288,26.6538867 6,26.6538867 Z" id="路径-294" fill="#000000" fill-rule="nonzero"></path>
                </g>
                <g id="编组-28" transform="translate(497.000000, 209.000000)">
                    <circle id="椭圆形" fill="#FE7E7E" cx="19" cy="18" r="13"></circle>
                    <circle id="椭圆形备份-26" fill="#A0FFE7" cx="13" cy="13" r="13"></circle>
                    <path d="M23,5.5 C13.8873016,5.5 6.5,12.8873016 6.5,22 C6.5,31.1126984 13.8873016,38.5 23,38.5 C32.1126984,38.5 39.5,31.1126984 39.5,22 C39.5,12.8873016 32.1126984,5.5 23,5.5 Z M23,8.5 C30.4558441,8.5 36.5,14.5441559 36.5,22 C36.5,29.4558441 30.4558441,35.5 23,35.5 C15.5441559,35.5 9.5,29.4558441 9.5,22 C9.5,14.5441559 15.5441559,8.5 23,8.5 Z" id="椭圆形" fill="#000000" fill-rule="nonzero"></path>
                </g>
                <g id="编组-19" transform="translate(958.344393, 181.000000)">
                    <path d="M4.51150505,86.0512497 L139.511505,86.0512497 C144.351758,51.6238497 132.515449,32.9200933 104.002579,29.9399804 C100.035101,10.1548415 88.8236428,0.175787513 70.3682036,0.00281844483 C42.6850448,-0.256635157 30.8751515,17.4329797 28.1015903,38.1857402 C1.86074128,47.6395808 -6.00262047,63.5947507 4.51150505,86.0512497 Z" id="路径-305" fill="#FFDF80"></path>
                    <circle id="椭圆形" fill="#FF6A6A" cx="112" cy="31" r="18"></circle>
                    <path d="M79.6095329,4.50020425 L80.3822614,4.50288432 C93.9060633,4.62963283 103.812504,9.89153368 109.900122,20.2417613 C110.320113,20.9558336 110.081713,21.8751734 109.367641,22.2951641 C108.653568,22.7151549 107.734229,22.4767547 107.314238,21.7626824 C101.782571,12.3576904 92.8630274,7.61998899 80.3541459,7.50275257 C56.121449,7.27563757 42.6936877,21.1493718 39.5883708,44.3844452 C39.5141802,44.9395659 39.1369136,45.4071201 38.6100092,45.596949 C13.6696418,54.5822626 6.05403288,69.2023294 15.2838461,90.1262719 L15.474,90.551 L148.13,90.551 L148.134955,90.5054845 C149.860379,68.5001639 146.027744,53.6890022 136.811142,45.9680818 L136.515168,45.7240766 C135.871827,45.202153 135.773399,44.2575197 136.295322,43.6141789 C136.817246,42.9708382 137.761879,42.87241 138.40522,43.3943336 C148.972328,51.9671189 153.108735,68.2679534 151.005739,92.1826487 C150.941637,92.9116015 150.363306,93.4807326 149.647281,93.5451669 L149.511505,93.5512497 L14.511505,93.5512497 C13.9294006,93.5512497 13.3998565,93.2144707 13.1530295,92.6872875 C2.46252527,69.8540717 10.2358588,53.1910776 35.9936939,43.367428 L36.741,43.085 L36.825945,42.520314 C40.4224076,19.2302915 54.4494847,4.85146711 78.8664448,4.50636113 L79.6095329,4.50020425 Z" id="路径" fill="#000000" fill-rule="nonzero"></path>
                    <path d="M122.5,15 C132.717268,15 141,23.2827321 141,33.5 C141,43.7172679 132.717268,52 122.5,52 C112.282732,52 104,43.7172679 104,33.5 C104,23.2827321 112.282732,15 122.5,15 Z M122.5,18 C113.939586,18 107,24.9395864 107,33.5 C107,42.0604136 113.939586,49 122.5,49 C131.060414,49 138,42.0604136 138,33.5 C138,24.9395864 131.060414,18 122.5,18 Z" id="椭圆形" fill="#000000" fill-rule="nonzero"></path>
                </g>
                <g id="编组-18" transform="translate(688.344393, 260.000000)">
                    <path d="M44.5,0 C69.0766714,0 89,19.9233286 89,44.5 C89,69.0766714 69.0766714,89 44.5,89 C19.9233286,89 0,69.0766714 0,44.5 C0,19.9233286 19.9233286,0 44.5,0 Z M74.1397657,20.9058129 C72.4308934,19.5057949 69.9106398,19.7561708 68.5106218,21.4650432 L68.5106218,21.4650432 L38.129,58.548 L20.9341803,39.9900076 L20.7806787,39.8330399 C19.2650494,38.3648444 16.847923,38.3230169 15.2814368,39.7743906 C13.6609337,41.2758116 13.5643987,43.8066311 15.0658197,45.4271341 L15.0658197,45.4271341 L35.3803751,67.3528949 L35.5335155,67.5095716 C37.2005639,69.1259875 39.9175445,68.9894559 41.4087425,67.1692885 L41.4087425,67.1692885 L74.6989961,26.5349568 L74.8335037,26.3614365 C76.0807018,24.6593122 75.7916757,22.2591636 74.1397657,20.9058129 Z" id="形状结合" fill="#FF6A6A"></path>
                    <path d="M50.5,4 C75.0766714,4 95,23.9233286 95,48.5 C95,73.0766714 75.0766714,93 50.5,93 C25.9233286,93 6,73.0766714 6,48.5 C6,23.9233286 25.9233286,4 50.5,4 Z M50.5,7 C27.5801829,7 9,25.5801829 9,48.5 C9,71.4198171 27.5801829,90 50.5,90 C73.4198171,90 92,71.4198171 92,48.5 C92,25.5801829 73.4198171,7 50.5,7 Z" id="椭圆形" fill="#000000" fill-rule="nonzero"></path>
                </g>
                <g id="编组-17" transform="translate(1172.344393, 480.000000)">
                    <path d="M96.3869824,0 L96.3869824,80.413404 L145.438952,68.9940566 C145.36611,54.2521045 145.178435,42.3137958 144.875925,33.1791306 C146.856608,20.01043 130.693627,8.95071977 96.3869824,0 Z" id="路径-307" fill="#FFCE3B"></path>
                    <path d="M1.70530257e-13,51.9526055 L1.70530257e-13,125.315954 C83.844731,132.404781 132.238999,123.330197 145.182805,98.0922009 C145.606743,79.9198315 145.504449,58.2821414 144.875925,33.1791306 C127.325753,53.0071766 79.0337776,59.2650016 1.70530257e-13,51.9526055 Z" id="路径-306" fill="#FFDF80"></path>
                    <polygon id="路径-308" fill="#A0FFE7" points="16 89.9352998 27 78 27 101"></polygon>
                    <path d="M32.8821203,84.9998275 L19.8821203,99.5297578 C19.3581477,100.115395 19.374967,101.006151 19.9206742,101.57159 L32.9206742,115.04166 C33.857639,116.012505 35.4999986,115.349238 35.4999986,114 L35.4999986,86 C35.4999986,84.6231132 33.8002032,83.9736983 32.8821203,84.9998275 Z M32.499,89.926 L32.499,110.285 L23.047,100.491 L32.499,89.926 Z" id="路径-308备份" fill="#000000" fill-rule="nonzero"></path>
                    <path d="M108.797851,8.12504655 L110.623884,8.53672669 C146.181668,16.5532489 160.484243,27.9565251 151.885418,42.8338225 L151.551285,43.3954923 L151.467047,43.4923663 C134.485227,63.0215109 94.6275047,69.0594561 31.8306671,61.9248009 C31.0075356,61.8312809 30.4160685,61.088188 30.5095885,60.2650565 C30.6031085,59.441925 31.3462014,58.8504579 32.1693329,58.9439779 C93.4321662,65.9043474 132.300419,60.1787035 148.712758,42.0761825 L149.117,41.62 L149.272766,41.3578408 C156.133233,29.451798 144.526836,19.691314 112.951144,12.1560351 L111.789,11.882 L111.702896,54.1796769 C111.701288,54.9593714 111.10508,55.5988959 110.34428,55.6700121 L110.199806,55.6765808 C109.420112,55.6749731 108.780587,55.0787651 108.709471,54.317965 L108.702902,54.1734911 L108.797851,8.12504655 Z" id="路径-309" fill="#000000" fill-rule="nonzero"></path>
                    <path d="M154.014911,49.9352105 C154.794399,49.953248 155.421218,50.5628 155.476286,51.3249299 L155.479809,51.4695101 L154.232392,105.376344 L153.908552,105.774668 C130.772191,134.232451 83.7543166,144.03721 12.9457474,135.429556 L10.7927512,135.163083 L9.48021014,134.997755 L9.48021014,70.8230751 C9.48021014,69.994648 10.151783,69.3230751 10.9802101,69.3230751 C11.7599063,69.3230751 12.4006588,69.9179632 12.4733436,70.6786151 L12.4802101,70.8230751 L12.48,132.349 L13.2929652,132.449682 C82.4810419,140.86263 128.31966,131.537918 150.896913,104.708943 L151.257,104.272 L152.480612,51.400108 C152.498649,50.6206205 153.108201,49.9938016 153.870331,49.9387332 L154.014911,49.9352105 Z" id="路径-310" fill="#000000" fill-rule="nonzero"></path>
                </g>
                <path d="M388,733 C389.104569,733 390,733.895431 390,735 L390,740 L395,740 C396.104569,740 397,740.895431 397,742 C397,743.104569 396.104569,744 395,744 L390,744 L390,749 C390,750.104569 389.104569,751 388,751 C386.895431,751 386,750.104569 386,749 L386,744 L381,744 C379.895431,744 379,743.104569 379,742 C379,740.895431 379.895431,740 381,740 L386,740 L386,735 C386,733.895431 386.895431,733 388,733 Z" id="形状结合备份-3" fill="#000000"></path>
                <path d="M244,665 C245.104569,665 246,665.895431 246,667 L246,672 L251,672 C252.104569,672 253,672.895431 253,674 C253,675.104569 252.104569,676 251,676 L246,676 L246,681 C246,682.104569 245.104569,683 244,683 C242.895431,683 242,682.104569 242,681 L242,676 L237,676 C235.895431,676 235,675.104569 235,674 C235,672.895431 235.895431,672 237,672 L242,672 L242,667 C242,665.895431 242.895431,665 244,665 Z" id="形状结合备份-6" fill="#000000"></path>
                <path d="M596.344393,242 C597.448963,242 598.344393,242.895431 598.344393,244 L598.344393,249 L603.344393,249 C604.448963,249 605.344393,249.895431 605.344393,251 C605.344393,252.104569 604.448963,253 603.344393,253 L598.344393,253 L598.344393,258 C598.344393,259.104569 597.448963,260 596.344393,260 C595.239824,260 594.344393,259.104569 594.344393,258 L594.344393,253 L589.344393,253 C588.239824,253 587.344393,252.104569 587.344393,251 C587.344393,249.895431 588.239824,249 589.344393,249 L594.344393,249 L594.344393,244 C594.344393,242.895431 595.239824,242 596.344393,242 Z" id="形状结合备份-4" fill="#000000"></path>
                <path d="M649.344393,299 C650.448963,299 651.344393,299.895431 651.344393,301 L651.344393,306 L656.344393,306 C657.448963,306 658.344393,306.895431 658.344393,308 C658.344393,309.104569 657.448963,310 656.344393,310 L651.344393,310 L651.344393,315 C651.344393,316.104569 650.448963,317 649.344393,317 C648.239824,317 647.344393,316.104569 647.344393,315 L647.344393,310 L642.344393,310 C641.239824,310 640.344393,309.104569 640.344393,308 C640.344393,306.895431 641.239824,306 642.344393,306 L647.344393,306 L647.344393,301 C647.344393,299.895431 648.239824,299 649.344393,299 Z" id="形状结合备份-5" fill="#000000"></path>
                <path d="M1085.03844,619.00889 C1169.65994,612.528489 1210.05928,621.651164 1206.82135,645.10168 C1203.97922,665.68569 1165.37917,695.71592 1099.87615,729.958183 C1035.79393,763.457711 950.303969,798.609919 860.231376,828.222701 C762.961396,860.201738 665.674035,884.077647 580.360326,895.98492 C460.51545,912.711723 386.892764,910.265169 359.10345,888.362555 C330.671735,865.953621 349.765097,824.465939 415.135685,764.137648 C415.74448,763.575812 416.693464,763.613879 417.255301,764.222675 C417.817137,764.83147 417.779069,765.780454 417.170274,766.34229 C353.04618,825.520234 334.725534,865.328893 360.960485,886.00641 C387.837838,907.190246 460.962493,909.62025 579.945634,893.01372 C665.068027,881.133149 762.184561,857.299164 859.294416,825.37277 C949.218981,795.808655 1034.55895,760.718123 1098.48632,727.29954 C1163.00588,693.57139 1201.20365,663.854129 1203.84955,644.691349 C1206.64472,624.447453 1167.81283,615.678727 1085.26752,622.000131 C1084.44151,622.063388 1083.72062,621.445055 1083.65736,620.619047 C1083.5941,619.793038 1084.21243,619.072146 1085.03844,619.00889 Z" id="路径-323" fill="#000000" fill-rule="nonzero"></path>
                <path d="M1056.68611,541.563604 C1140.66312,535.148488 1180.75453,544.179204 1177.53921,567.408327 C1174.71794,587.790624 1136.41516,617.515778 1071.41369,651.411687 C1007.82655,684.570076 922.997268,719.364228 833.620812,748.675365 C737.102627,780.328643 640.567175,803.961342 555.91273,815.747337 C436.991997,832.304047 363.93762,829.882391 336.360133,808.200568 C308.136352,786.010618 327.086788,744.935487 391.958287,685.216071 C392.567776,684.654988 393.516712,684.694228 394.077796,685.303717 C394.638879,685.913206 394.599639,686.862143 393.99015,687.423226 C330.368441,745.992109 312.194219,785.384796 338.214327,805.842186 C364.880731,826.807702 437.438793,829.212906 555.499046,812.775996 C639.962599,801.016578 736.327576,777.425613 832.685948,745.824746 C921.914602,716.562081 1006.5941,681.829365 1070.02657,648.751632 C1134.04212,615.369841 1171.94323,585.956415 1174.56754,566.996996 C1177.33866,546.977015 1138.81159,538.298669 1056.91461,544.554889 C1056.08859,544.61799 1055.36782,543.999521 1055.30472,543.173501 C1055.24162,542.34748 1055.86009,541.626705 1056.68611,541.563604 Z" id="路径-323备份" fill="#000000" fill-rule="nonzero" transform="translate(750.690069, 683.055552) rotate(22.000000) translate(-750.690069, -683.055552) "></path>
            </g>
        </g>
    </g>
</svg>