<?xml version="1.0" encoding="UTF-8"?>
<svg width="710px" height="357px" viewBox="0 0 710 357" version="1.1" xmlns="http://www.w3.org/2000/svg" xmlns:xlink="http://www.w3.org/1999/xlink">
    <title>星球</title>
    <defs>
        <circle id="path-1" cx="175.5" cy="175.5" r="175.5"></circle>
        <circle id="path-3" cx="61" cy="61" r="61"></circle>
    </defs>
    <g id="页面-1" stroke="none" stroke-width="1" fill="none" fill-rule="evenodd">
        <g id="画板" transform="translate(-1226.000000, -5565.000000)">
            <g id="星球" transform="translate(1226.000000, 5565.000000)">
                <g id="椭圆形-+-椭圆形-蒙版" transform="translate(273.000000, 1.000000)">
                    <mask id="mask-2" fill="white">
                        <use xlink:href="#path-1"></use>
                    </mask>
                    <use id="蒙版" fill="#A0FFE7" xlink:href="#path-1"></use>
                    <ellipse id="椭圆形" fill="#FFDF80" mask="url(#mask-2)" cx="111.15" cy="139.336364" rx="36.6954545" ry="29.7818182"></ellipse>
                    <ellipse id="椭圆形" fill="#FFDF80" mask="url(#mask-2)" transform="translate(289.309091, 58.500000) rotate(36.000000) translate(-289.309091, -58.500000) " cx="289.309091" cy="58.5" rx="56.3727273" ry="43.6090909"></ellipse>
                    <ellipse id="椭圆形" fill="#57E3BF" mask="url(#mask-2)" cx="255.272727" cy="325.472727" rx="12.7636364" ry="14.8909091"></ellipse>
                    <circle id="椭圆形" fill="#FF6A6A" mask="url(#mask-2)" cx="23.9318182" cy="102.640909" r="23.9318182"></circle>
                    <circle id="椭圆形" fill="#FF6A6A" mask="url(#mask-2)" cx="230.277273" cy="173.904545" r="12.2318182"></circle>
                    <ellipse id="椭圆形" fill="#57E3BF" mask="url(#mask-2)" cx="102.640909" cy="254.209091" rx="13.2954545" ry="11.7"></ellipse>
                </g>
                <path d="M457.5,6 C554.425974,6 633,84.5740264 633,181.5 C633,278.425974 554.425974,357 457.5,357 C360.574026,357 282,278.425974 282,181.5 C282,84.5740264 360.574026,6 457.5,6 Z M457.5,9 C362.230881,9 285,86.2308807 285,181.5 C285,276.769119 362.230881,354 457.5,354 C552.769119,354 630,276.769119 630,181.5 C630,86.2308807 552.769119,9 457.5,9 Z" id="椭圆形" fill="#000000" fill-rule="nonzero"></path>
                <path d="M607.454496,88.0949729 C664.597241,80.8972895 697.895994,88.9648893 707.071788,108.587053 C714.750552,125.007862 703.454382,147.663295 681.882529,163.472513 C658.609744,180.528282 592.391381,215.084681 525.103328,243.842277 C437.248753,281.389603 354.637068,307.020991 289.811786,313.823074 C241.13559,318.930642 214.443765,312.415929 210.109642,293.610074 C205.858713,275.165202 223.901715,245.728499 264.056187,204.848491 C264.636706,204.257483 265.586415,204.24898 266.177423,204.829498 C266.76843,205.410017 266.776933,206.359726 266.196415,206.950734 C226.767937,247.091631 209.107621,275.90399 213.033009,292.936335 C216.875203,309.607698 242.239328,315.798358 289.498716,310.839454 C353.967727,304.074754 436.321575,278.523364 523.924347,241.083654 L527.948478,239.356376 C593.644282,211.036838 657.51955,177.607863 680.109178,161.052756 C700.663327,145.989375 711.28684,124.683014 704.354236,109.857845 C695.908354,91.7965755 663.810944,84.0200363 607.829413,91.0714537 C607.00748,91.174984 606.257245,90.5926041 606.153714,89.7706716 C606.050184,88.9487392 606.632564,88.1985033 607.454496,88.0949729 Z" id="路径-295" fill="#000000" fill-rule="nonzero"></path>
                <g id="编组-12备份" transform="translate(627.419703, 42.442320) rotate(-13.000000) translate(-627.419703, -42.442320) translate(589.919703, 8.442320)">
                    <path d="M16.4827368,17.0091104 C23.2877993,17.5387317 29.4416282,17.6388629 34.9442234,17.3095039 C40.4468186,16.9801448 47.7482863,14.7519769 56.8486264,10.625 C52.1125288,19.7006932 49.5963046,26.7141046 49.2999537,31.6652342 C49.0036028,36.6163638 49.355285,43.0217438 50.3550005,50.8813741 C43.5985068,49.115618 37.5654164,48.3916461 32.2557293,48.7094586 C26.9460421,49.0272711 19.5603411,51.9157849 10.0986264,57.375 C14.9932791,47.1442042 17.5937367,39.470447 17.899999,34.3537283 C18.2062613,29.2370097 17.7338405,23.4554704 16.4827368,17.0091104 Z" id="矩形" fill="#A0FFE7" transform="translate(33.473626, 34.000000) rotate(-45.000000) translate(-33.473626, -34.000000) "></path>
                    <path d="M64.5371896,10.625 C59.801092,19.7006932 57.2848678,26.7141046 56.9885169,31.6652342 C56.692166,36.6163638 57.0438482,43.0217438 58.0435637,50.8813741 C51.28707,49.115618 45.2539796,48.3916461 39.9442925,48.7094586 C34.6346053,49.0272711 27.2489043,51.9157849 17.7871896,57.375 C22.6818423,47.1442042 25.2822999,39.470447 25.5885622,34.3537283 C25.8948245,29.2370097 25.4224037,23.4554704 24.1713,17.0091104 C30.9763625,17.5387317 37.1301914,17.6388629 42.6327866,17.3095039 C48.1353818,16.9801448 55.4368495,14.7519769 64.5371896,10.625 Z M58.382,16.448 L58.1487698,16.5375261 C52.1525044,18.7908961 47.0515774,20.0503854 42.8120314,20.3041443 C38.650425,20.5532381 34.1402459,20.5632222 29.2799799,20.3352795 L27.779,20.257 L27.8478193,20.7020819 C28.5474017,25.4308335 28.8065155,29.8048892 28.6206268,33.8268667 L28.5832026,34.5329732 C28.3494363,38.4385031 26.962476,43.5040701 24.4313952,49.792622 L24.094,50.618 L24.2129315,50.5610778 C30.2259696,47.6727966 35.2696748,46.0599514 39.4027282,45.739719 L39.7650476,45.7148182 C44.1591176,45.4518102 48.9727232,45.853822 54.2096077,46.9116992 L54.572,46.986 L54.5340236,46.6157021 C53.9537151,40.9028614 53.7625477,36.0376856 53.9652086,32.0069996 L53.9938765,31.4859893 C54.2205886,27.6983131 55.5574144,23.0022974 57.9911262,17.3434468 L58.382,16.448 Z" id="矩形备份-17" fill="#000000" fill-rule="nonzero" transform="translate(41.162190, 34.000000) rotate(-45.000000) translate(-41.162190, -34.000000) "></path>
                </g>
                <path d="M220.5,151 C225.746705,151 230,155.253295 230,160.5 C230,165.746705 225.746705,170 220.5,170 C215.253295,170 211,165.746705 211,160.5 C211,155.253295 215.253295,151 220.5,151 Z M220.5,154 C216.910149,154 214,156.910149 214,160.5 C214,164.089851 216.910149,167 220.5,167 C224.089851,167 227,164.089851 227,160.5 C227,156.910149 224.089851,154 220.5,154 Z" id="椭圆形" fill="#000000" fill-rule="nonzero"></path>
                <path d="M261.5,43 C264.537566,43 267,45.4624339 267,48.5 C267,51.5375661 264.537566,54 261.5,54 C258.462434,54 256,51.5375661 256,48.5 C256,45.4624339 258.462434,43 261.5,43 Z M261.5,46 C260.119288,46 259,47.1192881 259,48.5 C259,49.8807119 260.119288,51 261.5,51 C262.880712,51 264,49.8807119 264,48.5 C264,47.1192881 262.880712,46 261.5,46 Z" id="椭圆形" fill="#000000" fill-rule="nonzero"></path>
                <g id="编组-10备份-2" transform="translate(0.000000, 55.000000)">
                    <g id="椭圆形-+-椭圆形-+-椭圆形-+-椭圆形-+-椭圆形-蒙版" transform="translate(20.000000, 0.000000)">
                        <mask id="mask-4" fill="white">
                            <use xlink:href="#path-3"></use>
                        </mask>
                        <use id="蒙版" fill="#A0FFE7" xlink:href="#path-3"></use>
                        <circle id="椭圆形" fill="#57E3BF" mask="url(#mask-4)" cx="57.2869565" cy="25.4608696" r="8.48695652"></circle>
                        <circle id="椭圆形" fill="#57E3BF" mask="url(#mask-4)" cx="15.3826087" cy="48.2695652" r="4.77391304"></circle>
                        <circle id="椭圆形" fill="#57E3BF" mask="url(#mask-4)" cx="53.0434783" cy="79.5652174" r="8.48695652"></circle>
                        <circle id="椭圆形" fill="#57E3BF" mask="url(#mask-4)" cx="89.6434783" cy="56.7565217" r="3.71304348"></circle>
                        <circle id="椭圆形" fill="#57E3BF" mask="url(#mask-4)" cx="85.9304348" cy="111.391304" r="18.0347826"></circle>
                    </g>
                    <path d="M98,0 C131.68937,0 159,27.3106303 159,61 C159,94.6893697 131.68937,122 98,122 C64.3106303,122 37,94.6893697 37,61 C37,27.3106303 64.3106303,0 98,0 Z M98,3 C65.9674845,3 40,28.9674845 40,61 C40,93.0325155 65.9674845,119 98,119 C130.032515,119 156,93.0325155 156,61 C156,28.9674845 130.032515,3 98,3 Z" id="椭圆形备份-15" fill="#000000" fill-rule="nonzero"></path>
                    <path d="M159.235659,42.5149927 L160.467668,42.3439585 C180.221927,39.6744407 192.055313,41.6366997 195.273038,47.9951291 C198.372556,54.1199726 192.838974,62.8328172 180.93031,72.0484486 C154.315197,92.644805 106.941295,109.061061 60.7953418,110.327845 L58.7321426,110.38033 C25.331081,111.161498 6.52129499,108.21069 1.74684117,100.99468 C-3.48049309,93.0941952 7.34460235,82.1040822 33.3758188,67.2686333 C34.0955654,66.8584426 35.0115605,67.1093872 35.4217512,67.8291337 C35.8319419,68.5488803 35.5809973,69.4648754 34.8612508,69.8750661 L33.4180494,70.7028534 C10.1281623,84.1487163 0.670583163,93.9312814 4.24877294,99.3392831 C8.2554296,105.394861 27.273738,108.246939 60.7130177,107.328975 C106.232391,106.079391 152.990574,89.8764977 179.094286,69.6758939 C189.949282,61.2756528 194.781292,53.6674613 192.596273,49.3497238 C190.134772,44.485642 178.930088,42.7396741 159.658758,45.4850073 C158.838611,45.6018429 158.079037,45.0316964 157.962201,44.2115495 C157.845366,43.3914026 158.415512,42.6318282 159.235659,42.5149927 Z" id="路径-290" fill="#060606" fill-rule="nonzero"></path>
                    <path d="M111.384696,159.91069 C118.658707,160.894494 125.213214,161.381059 131.048218,161.370387 C136.883221,161.359714 144.515159,159.439593 153.94403,155.610024 C149.46477,164.975053 147.220339,172.28268 147.210736,177.532904 C147.201132,182.783129 147.970909,189.620847 149.520065,198.046058 C142.221402,195.749876 135.756849,194.606934 130.126407,194.617233 C124.495965,194.627531 116.815173,197.245128 107.08403,202.470024 C111.660678,191.885634 113.953965,183.880532 113.963889,178.454715 C113.973814,173.028899 113.114083,166.847557 111.384696,159.91069 Z" id="矩形" fill="#A0FFE7" transform="translate(130.514030, 179.040024) rotate(-45.000000) translate(-130.514030, -179.040024) "></path>
                    <path d="M162.432919,155.610024 C157.953659,164.975053 155.709228,172.28268 155.699624,177.532904 C155.690021,182.783129 156.459798,189.620847 158.008954,198.046058 C150.710291,195.749876 144.245738,194.606934 138.615296,194.617233 C132.984854,194.627531 125.304061,197.245128 115.572919,202.470024 L116.111157,201.212278 C120.329377,191.249353 122.443251,183.663499 122.452778,178.454715 C122.462703,173.028899 121.602972,166.847557 119.873585,159.91069 C127.147596,160.894494 133.702103,161.381059 139.537107,161.370387 C145.37211,161.359714 153.004048,159.439593 162.432919,155.610024 Z M156.792,160.921 L156.261408,161.099466 C149.743842,163.265986 144.181732,164.361896 139.542594,164.370382 C134.986454,164.378715 130.018812,164.092461 124.637605,163.512879 L123.752,163.414 L123.915715,164.213888 C124.89243,169.11513 125.405148,173.633827 125.449686,177.773726 L125.452773,178.460202 C125.444781,182.829853 124.144542,188.510567 121.569723,195.570807 L121.308,196.28 L121.789241,196.065616 C128.262654,193.199821 133.722837,191.709638 138.226152,191.62137 L138.609809,191.617238 C143.073117,191.609074 147.982782,192.276433 153.344771,193.611205 L154.24,193.839 L154.230105,193.777723 C153.24431,187.599594 152.733332,182.365587 152.701157,178.060691 L152.699629,177.527417 C152.707429,173.263289 153.989762,167.970505 156.523798,161.590487 L156.792,160.921 Z" id="矩形备份-17" fill="#000000" fill-rule="nonzero" transform="translate(139.002919, 179.040024) rotate(-45.000000) translate(-139.002919, -179.040024) "></path>
                </g>
            </g>
        </g>
    </g>
</svg>