<?xml version="1.0" encoding="UTF-8"?>
<svg width="1131px" height="577px" viewBox="0 0 1131 577" version="1.1" xmlns="http://www.w3.org/2000/svg" xmlns:xlink="http://www.w3.org/1999/xlink">
    <title>趋势图</title>
    <defs>
        <ellipse id="path-1" cx="60.0555556" cy="60" rx="60.0555556" ry="60"></ellipse>
    </defs>
    <g id="页面-1" stroke="none" stroke-width="1" fill="none" fill-rule="evenodd">
        <g id="画板" transform="translate(-927.000000, -4386.000000)">
            <g id="趋势图" transform="translate(927.000000, 4388.000000)">
                <g id="编组-4备份" transform="translate(221.000000, 0.000000)">
                    <rect id="矩形备份-16" fill="#FF6A6A" x="0" y="42.8021978" width="704.0625" height="432.197802"></rect>
                    <path d="M751,-1.5 C751.779696,-1.5 752.420449,-0.905111917 752.5,-0.144460011 L752.5,0 L752.5,431.153846 C752.5,431.982273 751.828427,432.653846 751,432.653846 C750.220304,432.653846 749.579551,432.058958 749.506867,431.298306 L749.5,431.153846 L749.499,1.5 L51.566,1.5 L51.5666667,82.6748612 C51.5666667,83.4545573 50.9717786,84.0953099 50.2111267,84.1679946 L50.0666667,84.1748612 C49.2869705,84.1748612 48.646218,83.5799731 48.5666667,82.8193212 L48.5666667,82.6748612 L48.5666667,0 C48.5666667,-0.779696117 49.1615547,-1.42044868 49.9222067,-1.49313342 L50.0666667,-1.5 L751,-1.5 Z" id="路径-282" fill="#020202" fill-rule="nonzero"></path>
                    <ellipse id="椭圆形备份-9" fill="#FF6A6A" cx="76.1430556" cy="24.010989" rx="8.34444444" ry="8.35164835"></ellipse>
                    <ellipse id="椭圆形备份-10" fill="#FFA14A" cx="101.176389" cy="24.010989" rx="8.34444444" ry="8.35164835"></ellipse>
                    <ellipse id="椭圆形备份-11" fill="#71C36F" cx="126.209722" cy="24.010989" rx="8.34444444" ry="8.35164835"></ellipse>
                </g>
                <g id="编组-3备份" transform="translate(151.000000, 83.000000)">
                    <rect id="矩形" fill="#FFDF80" x="0" y="30.2466063" width="704.63881" height="430.753394"></rect>
                    <ellipse id="椭圆形" fill="#FF6A6A" cx="36.5368272" cy="67.7941176" rx="8.35127479" ry="8.3438914"></ellipse>
                    <ellipse id="椭圆形备份-7" fill="#FFA14A" cx="61.5906516" cy="67.7941176" rx="8.35127479" ry="8.3438914"></ellipse>
                    <ellipse id="椭圆形备份-8" fill="#71C36F" cx="86.6444759" cy="67.7941176" rx="8.35127479" ry="8.3438914"></ellipse>
                    <rect id="矩形" fill="#FFFFFF" x="70.9858357" y="107.427602" width="55.3271955" height="284.735294"></rect>
                    <rect id="矩形备份-9" fill="#FFFFFF" x="143.015581" y="178.350679" width="56.3711048" height="213.812217"></rect>
                    <rect id="矩形备份-10" fill="#FFFFFF" x="215.045326" y="88.6538462" width="56.3711048" height="303.50905"></rect>
                    <rect id="矩形备份-11" fill="#FFFFFF" x="287.075071" y="186.69457" width="56.3711048" height="205.468326"></rect>
                    <rect id="矩形备份-14" fill="#FFFFFF" x="504.208215" y="186.69457" width="57.4150142" height="205.468326"></rect>
                    <rect id="矩形备份-15" fill="#FFFFFF" x="577.28187" y="147.061086" width="56.3711048" height="245.10181"></rect>
                    <rect id="矩形备份-12" fill="#FFFFFF" x="360.148725" y="147.061086" width="55.3271955" height="245.10181"></rect>
                    <rect id="矩形备份-13" fill="#FFFFFF" x="431.134561" y="114.728507" width="57.4150142" height="277.434389"></rect>
                    <path d="M650.018765,115.352771 C650.826044,115.166784 651.631246,115.670441 651.817233,116.47772 C652.00322,117.285 651.499563,118.090202 650.692283,118.276189 C620.407021,125.253532 597.298393,150.403764 581.385761,193.92636 L580.905763,195.25085 L580.866781,195.348476 C562.502279,237.035347 545.282162,262.976114 529.040331,273.222705 C512.496728,283.659678 497.020442,277.896028 483.144599,256.454682 L482.72461,255.800146 C463.167166,225.061352 430.950932,208.512208 397.866819,211.085068 C363.431862,213.762979 332.915094,236.537057 315.563626,275.618137 C295.521105,320.760336 281.216611,341.470815 264.413075,347.135101 C247.262431,352.916392 227.790191,342.892021 196.601381,313.931665 C158.430055,278.487698 122.163406,294.040789 86.9304292,361.56718 C86.5472114,362.301643 85.6411523,362.586384 84.9066894,362.203166 C84.1722266,361.819948 83.8874862,360.913889 84.270704,360.179426 C120.298212,291.130263 158.712548,274.656128 198.642708,311.733261 C255.806946,364.813089 275.649595,358.124352 312.821726,274.400771 C330.608863,234.338423 362.069628,210.859859 397.63422,208.094099 C431.495102,205.460831 464.444302,222.18622 484.647426,253.244198 L485.255729,254.189731 C498.43755,274.907842 512.3157,280.226766 527.439626,270.685434 C542.876504,260.946669 559.642866,235.824606 577.577544,195.369633 L578.1,194.187 L578.571938,192.88595 C594.639456,148.9476 618.132346,123.113702 649.069387,115.577747 L650.018765,115.352771 Z" id="路径-283" fill="#000000" fill-rule="nonzero"></path>
                    <path d="M658.184844,108.470588 C662.508858,108.470588 666.014164,111.972795 666.014164,116.292986 C666.014164,120.613178 662.508858,124.115385 658.184844,124.115385 C653.86083,124.115385 650.355524,120.613178 650.355524,116.292986 C650.355524,111.972795 653.86083,108.470588 658.184844,108.470588 Z M658.184844,111.470588 C655.517091,111.470588 653.355524,113.630244 653.355524,116.292986 C653.355524,118.955729 655.517091,121.115385 658.184844,121.115385 C660.852598,121.115385 663.014164,118.955729 663.014164,116.292986 C663.014164,113.630244 660.852598,111.470588 658.184844,111.470588 Z" id="椭圆形" fill="#010101" fill-rule="nonzero"></path>
                    <path d="M737,0 L737,431.79638 L31.3172805,431.79638 L31.3172805,0 L737,0 Z M733.999,3 L34.317,3 L34.317,428.796 L733.999,428.796 L733.999,3 Z" id="矩形备份-7" fill="#000000" fill-rule="nonzero"></path>
                </g>
                <g id="编组-5备份" transform="translate(932.000000, 275.000000)">
                    <path d="M62.002076,46.9245033 C27.0360842,48.8426489 11.9549565,68.9608091 16.758693,107.278984 L198.495211,107.270364 C199.055998,65.4970544 181.064661,46.1785314 144.5212,49.3147948 C142.358495,21.0794938 128.537794,7.23505936 103.059098,7.78149144 C82.2164494,8.50653258 68.5307753,21.5542032 62.002076,46.9245033 Z" id="路径-289" fill="#A0FFE7"></path>
                    <path d="M88.7265994,0.50120803 C116.587386,0.348967803 131.664169,14.7043037 132.538004,40.5046178 L132.56,41.316 L133.177171,41.2814768 C168.537547,39.5155832 186.651851,59.4431238 187.115424,100.406592 L187.124137,101.68021 C187.126018,102.463942 186.526577,103.108473 185.760895,103.177669 L185.624137,103.183819 L148.969204,103.183819 C148.140777,103.183819 147.469204,102.512246 147.469204,101.683819 C147.469204,100.904122 148.064093,100.26337 148.824744,100.190685 L148.969204,100.183819 L184.111,100.183 L184.097336,99.2521362 C183.32634,60.3116902 166.176601,42.2263096 132.24346,44.3384877 L131.18863,44.4102519 C130.319097,44.4743916 129.578284,43.7862111 129.578284,42.9143161 C129.578284,17.2541653 115.787221,3.35338494 88.7429921,3.50116324 C70.3457668,3.60169155 58.0903831,15.8915425 51.8509428,40.8122622 C51.6838192,41.4797646 51.0839623,41.9479499 50.3958564,41.9479499 C15.1182159,41.9479499 -0.131443869,60.7473177 4.21727818,99.1148357 L4.343,100.183 L43.2998257,100.183819 C44.0795218,100.183819 44.7202744,100.778707 44.7929591,101.539359 L44.7998257,101.683819 C44.7998257,102.463515 44.2049376,103.104267 43.4442857,103.176952 L43.2998257,103.183819 L3.02080453,103.183819 C2.26794472,103.183819 1.63171848,102.625752 1.53359847,101.879313 C-3.83595168,61.030983 11.8452169,39.8060987 48.1475053,38.9734426 L49.23,38.955 L49.3414472,38.5310611 C55.950197,13.6793306 68.9181542,0.870796472 88.130415,0.50844592 L88.7265994,0.50120803 Z" id="路径-284" fill="#000000" fill-rule="nonzero"></path>
                    <path d="M45.675192,59.4509666 C46.4548881,59.4509666 47.0956406,60.0458547 47.1683254,60.8065066 L47.175192,60.9509666 L47.175,83.112 L62.863452,83.1126873 C63.6431481,83.1126873 64.2839007,83.7075754 64.3565854,84.4682273 L64.363452,84.6126873 L64.363452,142.177101 C64.363452,143.005528 63.6918791,143.677101 62.863452,143.677101 C62.0837559,143.677101 61.4430033,143.082213 61.3703186,142.321561 L61.363452,142.177101 L61.363,86.112 L45.675192,86.1126873 C44.8954958,86.1126873 44.2547433,85.5177993 44.1820585,84.7571473 L44.175192,84.6126873 L44.175192,60.9509666 C44.175192,60.1225395 44.8467648,59.4509666 45.675192,59.4509666 Z" id="路径-285" fill="#000000" fill-rule="nonzero"></path>
                    <path d="M62.7930988,142.031236 C66.2470701,142.031236 69.047067,144.827172 69.047067,148.276134 C69.047067,151.725096 66.2470701,154.521032 62.7930988,154.521032 C59.3391275,154.521032 56.5391305,151.725096 56.5391305,148.276134 C56.5391305,144.827172 59.3391275,142.031236 62.7930988,142.031236 Z M62.7930988,145.031236 C60.9950078,145.031236 59.5391305,146.485002 59.5391305,148.276134 C59.5391305,150.067266 60.9950078,151.521032 62.7930988,151.521032 C64.5911897,151.521032 66.047067,150.067266 66.047067,148.276134 C66.047067,146.485002 64.5911897,145.031236 62.7930988,145.031236 Z" id="椭圆形" fill="#000000" fill-rule="nonzero"></path>
                    <path d="M88.8512998,104.561848 C92.3052711,104.561848 95.1052681,107.357785 95.1052681,110.806746 C95.1052681,114.255708 92.3052711,117.051644 88.8512998,117.051644 C85.3973285,117.051644 82.5973316,114.255708 82.5973316,110.806746 C82.5973316,107.357785 85.3973285,104.561848 88.8512998,104.561848 Z M88.8512998,107.561848 C87.0532089,107.561848 85.5973316,109.015614 85.5973316,110.806746 C85.5973316,112.597879 87.0532089,114.051644 88.8512998,114.051644 C90.6493908,114.051644 92.1052681,112.597879 92.1052681,110.806746 C92.1052681,109.015614 90.6493908,107.561848 88.8512998,107.561848 Z" id="椭圆形备份-12" fill="#000000" fill-rule="nonzero"></path>
                    <path d="M116.994157,140.99042 C120.448128,140.99042 123.248125,143.786356 123.248125,147.235318 C123.248125,150.68428 120.448128,153.480216 116.994157,153.480216 C113.540186,153.480216 110.740189,150.68428 110.740189,147.235318 C110.740189,143.786356 113.540186,140.99042 116.994157,140.99042 Z M116.994157,143.99042 C115.196066,143.99042 113.740189,145.444186 113.740189,147.235318 C113.740189,149.02645 115.196066,150.480216 116.994157,150.480216 C118.792248,150.480216 120.248125,149.02645 120.248125,147.235318 C120.248125,145.444186 118.792248,143.99042 116.994157,143.99042 Z" id="椭圆形备份-13" fill="#000000" fill-rule="nonzero"></path>
                    <path d="M137.840718,129.54144 C141.294689,129.54144 144.094686,132.337376 144.094686,135.786338 C144.094686,139.2353 141.294689,142.031236 137.840718,142.031236 C134.386747,142.031236 131.58675,139.2353 131.58675,135.786338 C131.58675,132.337376 134.386747,129.54144 137.840718,129.54144 Z M137.840718,132.54144 C136.042627,132.54144 134.58675,133.995206 134.58675,135.786338 C134.58675,137.57747 136.042627,139.031236 137.840718,139.031236 C139.638809,139.031236 141.094686,137.57747 141.094686,135.786338 C141.094686,133.995206 139.638809,132.54144 137.840718,132.54144 Z" id="椭圆形备份-14" fill="#000000" fill-rule="nonzero"></path>
                    <path d="M88.8573875,62.9218499 C89.6370837,62.9218499 90.2778362,63.516738 90.350521,64.2773899 L90.3573875,64.4218499 L90.3573875,105.028946 C90.3573875,105.857373 89.6858147,106.528946 88.8573875,106.528946 C88.0776914,106.528946 87.4369389,105.934057 87.3642541,105.173406 L87.3573875,105.028946 L87.3573875,64.4218499 C87.3573875,63.5934228 88.0289604,62.9218499 88.8573875,62.9218499 Z" id="路径-286" fill="#000000" fill-rule="nonzero"></path>
                    <path d="M117.072925,65.9881701 C117.852621,65.9881701 118.493373,66.5830582 118.566058,67.3437101 L118.572925,67.4881701 L118.572925,142.177101 C118.572925,143.005528 117.901352,143.677101 117.072925,143.677101 C116.293229,143.677101 115.652476,143.082213 115.579791,142.321561 L115.572925,142.177101 L115.572925,67.4881701 C115.572925,66.659743 116.244498,65.9881701 117.072925,65.9881701 Z" id="路径-287" fill="#000000" fill-rule="nonzero"></path>
                    <path d="M147.040627,56.2577539 C147.820323,56.2577539 148.461076,56.852642 148.53376,57.6132939 L148.540627,57.7577539 L148.540627,82.2047154 C148.540627,82.4259727 148.491689,82.6437841 148.398141,82.8428051 L148.319682,82.988308 L138.526,98.974 L138.526974,131.044896 C138.526974,131.824592 137.932086,132.465344 137.171434,132.538029 L137.026974,132.544896 C136.247278,132.544896 135.606526,131.950007 135.533841,131.189356 L135.526974,131.044896 L135.526974,98.5499633 C135.526974,98.328706 135.575912,98.1108947 135.66946,97.9118736 L135.747919,97.7663707 L145.54,81.782 L145.540627,57.7577539 C145.540627,56.9780578 146.135515,56.3373053 146.896167,56.2646205 L147.040627,56.2577539 Z" id="路径-288" fill="#000000" fill-rule="nonzero"></path>
                </g>
                <g id="编组-10备份" transform="translate(794.000000, 455.000000)">
                    <g id="椭圆形-+-椭圆形-+-椭圆形-+-椭圆形-+-椭圆形-蒙版" transform="translate(17.755556, 0.000000)">
                        <mask id="mask-2" fill="white">
                            <use xlink:href="#path-1"></use>
                        </mask>
                        <use id="蒙版" fill="#A0FFE7" xlink:href="#path-1"></use>
                        <ellipse id="椭圆形" fill="#57E3BF" mask="url(#mask-2)" cx="56.4" cy="25.0434783" rx="8.35555556" ry="8.34782609"></ellipse>
                        <ellipse id="椭圆形" fill="#57E3BF" mask="url(#mask-2)" cx="15.1444444" cy="47.4782609" rx="4.7" ry="4.69565217"></ellipse>
                        <ellipse id="椭圆形" fill="#57E3BF" mask="url(#mask-2)" cx="52.2222222" cy="78.2608696" rx="8.35555556" ry="8.34782609"></ellipse>
                        <ellipse id="椭圆形" fill="#57E3BF" mask="url(#mask-2)" cx="88.2555556" cy="55.826087" rx="3.65555556" ry="3.65217391"></ellipse>
                        <ellipse id="椭圆形" fill="#57E3BF" mask="url(#mask-2)" cx="84.6" cy="109.565217" rx="17.7555556" ry="17.7391304"></ellipse>
                    </g>
                    <path d="M94.5222222,0 C127.68999,0 154.577778,26.862915 154.577778,60 C154.577778,93.137085 127.68999,120 94.5222222,120 C61.3544547,120 34.4666667,93.137085 34.4666667,60 C34.4666667,26.862915 61.3544547,0 94.5222222,0 Z M94.5222222,3 C63.0106878,3 37.4666667,28.5203911 37.4666667,60 C37.4666667,91.4796089 63.0106878,117 94.5222222,117 C126.033757,117 151.577778,91.4796089 151.577778,60 C151.577778,28.5203911 126.033757,3 94.5222222,3 Z" id="椭圆形备份-15" fill="#000000" fill-rule="nonzero"></path>
                    <path d="M154.974216,41.2826087 L156.389302,41.2882586 C169.22334,41.3918756 178.27478,42.9217029 183.61927,45.9589537 C189.485254,49.2925678 190.977254,54.5126339 188.017271,61.020997 L187.865561,61.347486 L187.764554,61.5272915 C168.703979,90.5803468 125.373602,105.922634 57.8722911,107.766191 L55.8409266,107.817603 C22.9553174,108.582812 4.4398176,105.692823 -0.266874691,98.6155712 C-5.43122982,90.8501512 5.23313759,80.0785337 30.874209,65.5400941 C31.5948565,65.1314883 32.5102971,65.3844481 32.9189029,66.1050956 C33.3275087,66.8257431 33.0745489,67.7411837 32.3539014,68.1497895 L30.93448,68.9597763 C8.0283736,82.1164655 -1.27210068,91.6865965 2.23114407,96.9542758 C6.16749152,102.873193 24.8860304,105.665975 57.7903874,104.76731 C123.742582,102.966061 166.012882,88.2146316 184.69722,60.7187626 L185.198,59.968 L185.290979,59.7694143 C187.582512,54.7368668 186.638592,51.23811 182.386028,48.7118656 L182.137017,48.5671957 C177.163799,45.7409373 168.081464,44.2826087 154.974216,44.2826087 C154.145789,44.2826087 153.474216,43.6110358 153.474216,42.7826087 C153.474216,41.9541816 154.145789,41.2826087 154.974216,41.2826087 Z" id="路径-290" fill="#060606" fill-rule="nonzero"></path>
                </g>
                <g id="编组-12备份" transform="translate(45.000000, 377.000000)">
                    <path d="M14.5545373,14.721204 C21.6993616,15.6828729 28.1377218,16.1565604 33.869618,16.1422664 C39.6015142,16.1279724 47.099836,14.2368003 56.3645833,10.46875 C51.9583652,19.671208 49.7488254,26.8511621 49.7359639,32.0086123 C49.7231024,37.1660625 50.4748111,43.882444 51.9910899,52.1577566 C44.8229059,49.9069169 38.4733392,48.7883935 32.9423898,48.8021864 C27.4114404,48.8159793 19.8646716,51.3923338 10.3020833,56.53125 C14.8047654,46.1309166 17.0627523,38.2657801 17.0760439,32.9358405 C17.0893355,27.6059009 16.2488333,21.5343554 14.5545373,14.721204 Z" id="矩形" fill="#A0FFE7" transform="translate(33.333333, 33.500000) rotate(-45.000000) translate(-33.333333, -33.500000) "></path>
                    <path d="M64.6979167,10.46875 L64.1234383,11.6837592 C60.0996341,20.3054311 58.0815871,27.0803821 58.0692972,32.0086123 C58.0564358,37.1660625 58.8081444,43.882444 60.3244233,52.1577566 C53.1562393,49.9069169 46.8066726,48.7883935 41.2757232,48.8021864 C35.7447738,48.8159793 28.1980049,51.3923338 18.6354167,56.53125 L19.1755467,55.2704105 C23.3186846,45.4930882 25.3966281,38.0482315 25.4093773,32.9358405 C25.4226689,27.6059009 24.5821667,21.5343554 22.8878706,14.721204 C30.0326949,15.6828729 36.4710551,16.1565604 42.2029513,16.1422664 C47.9348475,16.1279724 55.4331693,14.2368003 64.6979167,10.46875 Z M59.058,15.778 L58.6505918,15.9161031 C52.2425484,18.0499018 46.773345,19.1308782 42.2104326,19.1422571 C37.822389,19.1531998 33.0464001,18.8863758 27.8805284,18.3429711 L26.762,18.221 L26.9078161,18.9395223 C27.8646571,23.7565794 28.3657075,28.1982977 28.4067819,32.2684099 L28.4093679,32.9433218 C28.3987167,37.2144608 27.1332697,42.7561211 24.6302796,49.6355277 L24.369,50.344 L24.8712383,50.1210579 C31.1687633,47.343939 36.4876043,45.8972857 40.8828239,45.8066713 L41.2682419,45.8021957 C45.6571704,45.7912508 50.4838216,46.4441459 55.7541328,47.7527677 L56.56,47.956 L56.4445595,47.2173722 C55.5572717,41.4736384 55.098065,36.5806942 55.0704594,32.5253412 L55.0693066,32.001131 C55.0798094,27.7895026 56.3536006,22.560504 58.8676629,16.2547923 L59.058,15.778 Z" id="矩形备份-17" fill="#000000" fill-rule="nonzero" transform="translate(41.666667, 33.500000) rotate(-45.000000) translate(-41.666667, -33.500000) "></path>
                </g>
                <rect id="矩形备份-24" fill="#FFDF80" x="947" y="180" width="85" height="27"></rect>
                <rect id="矩形备份-25" fill="#FFDF80" x="0" y="185" width="85" height="27"></rect>
                <rect id="矩形备份-26" fill="#A0FFE7" x="1000" y="113" width="86" height="29"></rect>
                <rect id="矩形备份-27" fill="#A0FFE7" x="74" y="237" width="86" height="29"></rect>
                <rect id="矩形备份-28" fill="#FF6A6A" x="1027" y="230" width="83" height="22"></rect>
                <path d="M1039,181 L1039,212 L953,212 L953,181 L1039,181 Z M1036,184 L956,184 L956,209 L1036,209 L1036,184 Z" id="矩形备份-29" fill="#020202" fill-rule="nonzero"></path>
                <path d="M92,186 L92,217 L6,217 L6,186 L92,186 Z M89,189 L9,189 L9,214 L89,214 L89,189 Z" id="矩形备份-30" fill="#020202" fill-rule="nonzero"></path>
                <path d="M1119,233 L1119,259 L1033,259 L1033,233 L1119,233 Z M1116,236 L1036,236 L1036,256 L1116,256 L1116,236 Z" id="矩形备份-31" fill="#020202" fill-rule="nonzero"></path>
                <path d="M1093,118 L1093,147 L1005,147 L1005,118 L1093,118 Z M1090,121 L1008,121 L1008,144 L1090,144 L1090,121 Z" id="矩形备份-32" fill="#020202" fill-rule="nonzero"></path>
                <path d="M166,242 L166,271 L78,271 L78,242 L166,242 Z M163,245 L81,245 L81,268 L163,268 L163,245 Z" id="矩形备份-33" fill="#020202" fill-rule="nonzero"></path>
            </g>
        </g>
    </g>
</svg>